<svg width="36" height="32" viewBox="0 0 36 32" fill="none" xmlns="http://www.w3.org/2000/svg">
<path opacity="0.4" d="M12 2L24 6V30L12 26V2Z" fill="white"/>
<path d="M2.35627e-08 7.35375V29C-3.54495e-05 29.1634 0.0399825 29.3244 0.116552 29.4688C0.193121 29.6131 0.303909 29.7365 0.439219 29.8282C0.574529 29.9198 0.730238 29.9769 0.89272 29.9944C1.0552 30.012 1.2195 29.9894 1.37125 29.9288L10 26V2L1.2575 5.5C0.886826 5.6482 0.568984 5.90395 0.344879 6.23431C0.120774 6.56468 0.000662103 6.95455 2.35627e-08 7.35375ZM34.6287 2.0725L26 6V30L34.7425 26.5031C35.1137 26.3547 35.4319 26.0985 35.656 25.7675C35.8801 25.4365 36 25.046 36 24.6463V3C35.9998 2.83668 35.9597 2.67589 35.883 2.53168C35.8064 2.38746 35.6955 2.26422 35.5603 2.17272C35.425 2.08122 35.2694 2.02424 35.107 2.00677C34.9446 1.9893 34.7804 2.01187 34.6287 2.0725Z" fill="white"/>
</svg>
