<svg width="36" height="32" viewBox="0 0 36 32" fill="none" xmlns="http://www.w3.org/2000/svg">
<g clip-path="url(#clip0_151_158)">
<path opacity="0.4" d="M12 0H8C7.46957 0 6.96086 0.210714 6.58579 0.585786C6.21071 0.960859 6 1.46957 6 2V24C6 24.5304 6.21071 25.0391 6.58579 25.4142C6.96086 25.7893 7.46957 26 8 26H12C12.5304 26 13.0391 25.7893 13.4142 25.4142C13.7893 25.0391 14 24.5304 14 24V2C14 1.46957 13.7893 0.960859 13.4142 0.585786C13.0391 0.210714 12.5304 0 12 0V0ZM31 24H29C28.7348 24 28.4804 24.1054 28.2929 24.2929C28.1054 24.4804 28 24.7348 28 25V27C28 27.2652 28.1054 27.5196 28.2929 27.7071C28.4804 27.8946 28.7348 28 29 28H31C31.2652 28 31.5196 27.8946 31.7071 27.7071C31.8946 27.5196 32 27.2652 32 27V25C32 24.7348 31.8946 24.4804 31.7071 24.2929C31.5196 24.1054 31.2652 24 31 24ZM31 16H29C28.7348 16 28.4804 16.1054 28.2929 16.2929C28.1054 16.4804 28 16.7348 28 17V19C28 19.2652 28.1054 19.5196 28.2929 19.7071C28.4804 19.8946 28.7348 20 29 20H31C31.2652 20 31.5196 19.8946 31.7071 19.7071C31.8946 19.5196 32 19.2652 32 19V17C32 16.7348 31.8946 16.4804 31.7071 16.2929C31.5196 16.1054 31.2652 16 31 16ZM23 24H21C20.7348 24 20.4804 24.1054 20.2929 24.2929C20.1054 24.4804 20 24.7348 20 25V27C20 27.2652 20.1054 27.5196 20.2929 27.7071C20.4804 27.8946 20.7348 28 21 28H23C23.2652 28 23.5196 27.8946 23.7071 27.7071C23.8946 27.5196 24 27.2652 24 27V25C24 24.7348 23.8946 24.4804 23.7071 24.2929C23.5196 24.1054 23.2652 24 23 24ZM23 16H21C20.7348 16 20.4804 16.1054 20.2929 16.2929C20.1054 16.4804 20 16.7348 20 17V19C20 19.2652 20.1054 19.5196 20.2929 19.7071C20.4804 19.8946 20.7348 20 21 20H23C23.2652 20 23.5196 19.8946 23.7071 19.7071C23.8946 19.5196 24 19.2652 24 19V17C24 16.7348 23.8946 16.4804 23.7071 16.2929C23.5196 16.1054 23.2652 16 23 16Z" fill="white"/>
<path d="M33 2H16V24C15.9988 25.0605 15.577 26.0773 14.8271 26.8271C14.0773 27.577 13.0605 27.9988 12 28H8C6.93949 27.9988 5.92275 27.577 5.17285 26.8271C4.42296 26.0773 4.00116 25.0605 4 24V2H3C2.20435 2 1.44129 2.31607 0.87868 2.87868C0.31607 3.44129 0 4.20435 0 5L0 29C0 29.7956 0.31607 30.5587 0.87868 31.1213C1.44129 31.6839 2.20435 32 3 32H33C33.7957 32 34.5587 31.6839 35.1213 31.1213C35.6839 30.5587 36 29.7956 36 29V5C36 4.20435 35.6839 3.44129 35.1213 2.87868C34.5587 2.31607 33.7957 2 33 2ZM24 27C24 27.2652 23.8946 27.5196 23.7071 27.7071C23.5196 27.8946 23.2652 28 23 28H21C20.7348 28 20.4804 27.8946 20.2929 27.7071C20.1054 27.5196 20 27.2652 20 27V25C20 24.7348 20.1054 24.4804 20.2929 24.2929C20.4804 24.1054 20.7348 24 21 24H23C23.2652 24 23.5196 24.1054 23.7071 24.2929C23.8946 24.4804 24 24.7348 24 25V27ZM24 19C24 19.2652 23.8946 19.5196 23.7071 19.7071C23.5196 19.8946 23.2652 20 23 20H21C20.7348 20 20.4804 19.8946 20.2929 19.7071C20.1054 19.5196 20 19.2652 20 19V17C20 16.7348 20.1054 16.4804 20.2929 16.2929C20.4804 16.1054 20.7348 16 21 16H23C23.2652 16 23.5196 16.1054 23.7071 16.2929C23.8946 16.4804 24 16.7348 24 17V19ZM32 27C32 27.2652 31.8946 27.5196 31.7071 27.7071C31.5196 27.8946 31.2652 28 31 28H29C28.7348 28 28.4804 27.8946 28.2929 27.7071C28.1054 27.5196 28 27.2652 28 27V25C28 24.7348 28.1054 24.4804 28.2929 24.2929C28.4804 24.1054 28.7348 24 29 24H31C31.2652 24 31.5196 24.1054 31.7071 24.2929C31.8946 24.4804 32 24.7348 32 25V27ZM32 19C32 19.2652 31.8946 19.5196 31.7071 19.7071C31.5196 19.8946 31.2652 20 31 20H29C28.7348 20 28.4804 19.8946 28.2929 19.7071C28.1054 19.5196 28 19.2652 28 19V17C28 16.7348 28.1054 16.4804 28.2929 16.2929C28.4804 16.1054 28.7348 16 29 16H31C31.2652 16 31.5196 16.1054 31.7071 16.2929C31.8946 16.4804 32 16.7348 32 17V19ZM32 12H20V6H32V12Z" fill="white"/>
</g>
<rect x="0.5" y="0.5" width="35" height="31" stroke="black"/>
<defs>
<clipPath id="clip0_151_158">
<rect width="36" height="32" fill="white"/>
</clipPath>
</defs>
</svg>
