<svg width="12" height="24" viewBox="0 0 12 24" fill="none" xmlns="http://www.w3.org/2000/svg">
<path opacity="0.4" d="M6.0066 12L8.65363 14.648L4.1466 19.1719C3.93886 19.3818 3.65622 19.5007 3.36085 19.5023C3.06548 19.5039 2.78158 19.388 2.5716 19.1803L2.56317 19.1719L1.50801 18.1087C1.40381 18.0046 1.32115 17.881 1.26475 17.7449C1.20835 17.6088 1.17932 17.4629 1.17932 17.3156C1.17932 17.1683 1.20835 17.0224 1.26475 16.8864C1.32115 16.7503 1.40381 16.6266 1.50801 16.5225L6.0066 12Z" fill="#6059C9"/>
<path d="M2.55839 4.83138L1.49995 5.89732C1.39575 6.00145 1.31309 6.12509 1.25669 6.26118C1.20029 6.39726 1.17126 6.54313 1.17126 6.69044C1.17126 6.83775 1.20029 6.98362 1.25669 7.11971C1.31309 7.2558 1.39575 7.37944 1.49995 7.48357L8.65354 14.6484L10.4999 12.7968L10.5028 12.794C10.7127 12.5821 10.8299 12.2954 10.8285 11.997C10.8271 11.6987 10.7072 11.4131 10.4953 11.2031L4.1423 4.8281L4.13433 4.81966C3.92394 4.61212 3.63974 4.49663 3.34422 4.49856C3.0487 4.50049 2.76605 4.6197 2.55839 4.82998V4.83138Z" fill="#6059C9"/>
</svg>
