<svg width="12" height="24" viewBox="0 0 12 24" fill="none" xmlns="http://www.w3.org/2000/svg">
<path opacity="0.4" d="M6.00648 12L8.65351 14.648L4.14648 19.1719C3.93874 19.3818 3.65609 19.5007 3.36073 19.5023C3.06536 19.5039 2.78146 19.388 2.57148 19.1803L2.56304 19.1719L1.50789 18.1087C1.40369 18.0046 1.32102 17.881 1.26463 17.7449C1.20823 17.6088 1.1792 17.4629 1.1792 17.3156C1.1792 17.1683 1.20823 17.0224 1.26463 16.8864C1.32102 16.7503 1.40369 16.6266 1.50789 16.5225L6.00648 12Z" fill="#FFFCF7"/>
<path d="M2.55851 4.83138L1.50007 5.89732C1.39587 6.00145 1.31321 6.12509 1.25681 6.26117C1.20042 6.39726 1.17139 6.54313 1.17139 6.69044C1.17139 6.83775 1.20042 6.98362 1.25681 7.11971C1.31321 7.2558 1.39587 7.37944 1.50007 7.48357L8.65366 14.6484L10.5001 12.7968L10.5029 12.794C10.7129 12.5821 10.83 12.2954 10.8286 11.997C10.8272 11.6987 10.7073 11.4131 10.4954 11.2031L4.14242 4.8281L4.13445 4.81966C3.92406 4.61212 3.63987 4.49663 3.34434 4.49856C3.04882 4.50049 2.76617 4.6197 2.55851 4.82998V4.83138Z" fill="#FFFCF7"/>
</svg>
