<svg width="54" height="48" viewBox="0 0 54 48" fill="none" xmlns="http://www.w3.org/2000/svg">
<g clip-path="url(#clip0_159_236)">
<path opacity="0.4" d="M9 0H3C2.20435 0 1.44129 0.316071 0.87868 0.87868C0.316071 1.44129 0 2.20435 0 3L0 9H12V3C12 2.20435 11.6839 1.44129 11.1213 0.87868C10.5587 0.316071 9.79565 0 9 0V0ZM0 36H12V12H0V36ZM0 45C0 45.7957 0.316071 46.5587 0.87868 47.1213C1.44129 47.6839 2.20435 48 3 48H9C9.79565 48 10.5587 47.6839 11.1213 47.1213C11.6839 46.5587 12 45.7957 12 45V39H0V45ZM48.1519 43.3331L37.6012 4.00406L31.9519 5.51719L42.4847 44.7797C42.495 44.8162 42.5034 44.8537 42.5119 44.8903L48.1641 43.3763C48.1603 43.3622 48.1556 43.3481 48.1519 43.3331ZM15 45C15 45.7957 15.3161 46.5587 15.8787 47.1213C16.4413 47.6839 17.2044 48 18 48H24C24.7956 48 25.5587 47.6839 26.1213 47.1213C26.6839 46.5587 27 45.7957 27 45V39H15V45ZM24 0H18C17.2044 0 16.4413 0.316071 15.8787 0.87868C15.3161 1.44129 15 2.20435 15 3V9H26.6991L25.9491 6.22031C25.8197 5.74198 25.8523 5.23428 26.0417 4.7764C26.2311 4.31852 26.5668 3.9362 26.9963 3.68906V3C26.9963 2.205 26.6807 1.44251 26.1189 0.880004C25.5571 0.317503 24.795 0.00099375 24 0V0ZM15 36H27V12H15V36Z" fill="#6059C9"/>
<path d="M0 39H12V36H0V39ZM0 12H12V8.99996H0V12ZM53.9222 41.7797L43.1616 1.66683C43.0099 1.09287 42.6366 0.602587 42.1236 0.303741C41.6107 0.00489479 41 -0.078068 40.4259 0.0730845H40.4175L38.9747 0.46871C38.4002 0.624615 37.9109 1.00181 37.614 1.51771C37.317 2.0336 37.2366 2.64615 37.3903 3.22121L48.1519 43.3331C48.3035 43.9071 48.6769 44.3973 49.1898 44.6962C49.7028 44.995 50.3134 45.078 50.8875 44.9268H50.8959L52.3378 44.5312C52.9121 44.3753 53.4012 43.9982 53.6981 43.4826C53.9951 42.9669 54.0756 42.3546 53.9222 41.7797ZM15 39H27V36H15V39ZM31.7241 4.66683C31.5724 4.09287 31.1991 3.60259 30.6861 3.30374C30.1732 3.0049 29.5625 2.92193 28.9884 3.07308H28.98L27.5372 3.46871C26.9627 3.62462 26.4734 4.00181 26.1765 4.51771C25.8795 5.0336 25.7991 5.64615 25.9528 6.22121L26.7028 9.0009H15V12.0009H27V10.125L36.7144 46.3331C36.866 46.9071 37.2394 47.3973 37.7523 47.6962C38.2653 47.995 38.8759 48.078 39.45 47.9268H39.4584L40.9003 47.5312C41.4742 47.3753 41.9629 46.9985 42.2598 46.4833C42.5567 45.968 42.6376 45.3562 42.4847 44.7815L31.7241 4.66683Z" fill="#6059C9"/>
</g>
<defs>
<clipPath id="clip0_159_236">
<rect width="54" height="48" fill="white"/>
</clipPath>
</defs>
</svg>
