<svg width="54" height="48" viewBox="0 0 54 48" fill="none" xmlns="http://www.w3.org/2000/svg">
<path opacity="0.4" d="M0 40.5C0 41.6935 0.474106 42.8381 1.31802 43.682C2.16193 44.5259 3.30653 45 4.5 45H49.5C50.6935 45 51.8381 44.5259 52.682 43.682C53.5259 42.8381 54 41.6935 54 40.5V24H0V40.5ZM18 34.125C18 33.8266 18.1185 33.5405 18.3295 33.3295C18.5405 33.1185 18.8266 33 19.125 33H31.875C32.1734 33 32.4595 33.1185 32.6705 33.3295C32.8815 33.5405 33 33.8266 33 34.125V37.875C33 38.1734 32.8815 38.4595 32.6705 38.6705C32.4595 38.8815 32.1734 39 31.875 39H19.125C18.8266 39 18.5405 38.8815 18.3295 38.6705C18.1185 38.4595 18 38.1734 18 37.875V34.125ZM6 34.125C6 33.8266 6.11853 33.5405 6.3295 33.3295C6.54048 33.1185 6.82663 33 7.125 33H13.875C14.1734 33 14.4595 33.1185 14.6705 33.3295C14.8815 33.5405 15 33.8266 15 34.125V37.875C15 38.1734 14.8815 38.4595 14.6705 38.6705C14.4595 38.8815 14.1734 39 13.875 39H7.125C6.82663 39 6.54048 38.8815 6.3295 38.6705C6.11853 38.4595 6 38.1734 6 37.875V34.125ZM49.5 3H4.5C3.30653 3 2.16193 3.47411 1.31802 4.31802C0.474106 5.16193 0 6.30653 0 7.5L0 12H54V7.5C54 6.30653 53.5259 5.16193 52.682 4.31802C51.8381 3.47411 50.6935 3 49.5 3Z" fill="#6059C9"/>
<path d="M54 24H0V12H54V24Z" fill="#6059C9"/>
</svg>
