<svg width="32" height="32" viewBox="0 0 32 32" fill="none" xmlns="http://www.w3.org/2000/svg">
<g clip-path="url(#clip0_151_151)">
<path opacity="0.4" d="M4 16.1L14.2437 23.5C14.7539 23.8717 15.3688 24.0719 16 24.0719C16.6312 24.0719 17.2461 23.8717 17.7563 23.5L28 16.1V6C28 5.46957 27.7893 4.96086 27.4142 4.58579C27.0391 4.21071 26.5304 4 26 4H6C5.46957 4 4.96086 4.21071 4.58579 4.58579C4.21071 4.96086 4 5.46957 4 6V16.1ZM10 10C10 9.73478 10.1054 9.48043 10.2929 9.29289C10.4804 9.10536 10.7348 9 11 9H21C21.2652 9 21.5196 9.10536 21.7071 9.29289C21.8946 9.48043 22 9.73478 22 10V11C22 11.2652 21.8946 11.5196 21.7071 11.7071C21.5196 11.8946 21.2652 12 21 12H11C10.7348 12 10.4804 11.8946 10.2929 11.7071C10.1054 11.5196 10 11.2652 10 11V10ZM10 15C10 14.7348 10.1054 14.4804 10.2929 14.2929C10.4804 14.1054 10.7348 14 11 14H21C21.2652 14 21.5196 14.1054 21.7071 14.2929C21.8946 14.4804 22 14.7348 22 15V16C22 16.2652 21.8946 16.5196 21.7071 16.7071C21.5196 16.8946 21.2652 17 21 17H11C10.7348 17 10.4804 16.8946 10.2929 16.7071C10.1054 16.5196 10 16.2652 10 16V15Z" fill="white"/>
<path d="M22 9.99999C22 9.73478 21.8946 9.48042 21.7071 9.29289C21.5196 9.10535 21.2652 8.99999 21 8.99999H11C10.7348 8.99999 10.4804 9.10535 10.2929 9.29289C10.1054 9.48042 10 9.73478 10 9.99999V11C10 11.2652 10.1054 11.5196 10.2929 11.7071C10.4804 11.8946 10.7348 12 11 12H21C21.2652 12 21.5196 11.8946 21.7071 11.7071C21.8946 11.5196 22 11.2652 22 11V9.99999ZM21 14H11C10.7348 14 10.4804 14.1053 10.2929 14.2929C10.1054 14.4804 10 14.7348 10 15V16C10 16.2652 10.1054 16.5196 10.2929 16.7071C10.4804 16.8946 10.7348 17 11 17H21C21.2652 17 21.5196 16.8946 21.7071 16.7071C21.8946 16.5196 22 16.2652 22 16V15C22 14.7348 21.8946 14.4804 21.7071 14.2929C21.5196 14.1053 21.2652 14 21 14ZM20.5875 2.5875C19.5375 1.825 17.45 -0.018753 16 -3.01206e-06C14.55 -0.018753 12.4625 1.825 11.4125 2.5875L9.5 4H22.5L20.5875 2.5875ZM4 8.06249C2.50625 9.16874 1.33125 10.0375 1.15 10.1875C0.792457 10.4676 0.503174 10.8252 0.303965 11.2333C0.104756 11.6415 0.00082161 12.0896 0 12.5437L0 13.2125L4 16.1V8.06249ZM30.85 10.1875C30.6688 10.0437 29.4937 9.16874 28 8.06874V16.1L32 13.2125V12.5437C31.9992 12.0896 31.8952 11.6415 31.696 11.2333C31.4968 10.8252 31.2075 10.4676 30.85 10.1875ZM16 26.0687C14.9473 26.0685 13.9215 25.7361 13.0688 25.1187L0 15.6812V29C0 29.7956 0.31607 30.5587 0.87868 31.1213C1.44129 31.6839 2.20435 32 3 32H29C29.7956 32 30.5587 31.6839 31.1213 31.1213C31.6839 30.5587 32 29.7956 32 29V15.6812L18.9312 25.1187C18.0785 25.7361 17.0527 26.0685 16 26.0687Z" fill="white"/>
</g>
<defs>
<clipPath id="clip0_151_151">
<rect width="32" height="32" fill="white"/>
</clipPath>
</defs>
</svg>
