<svg width="863" height="492" viewBox="0 0 863 492" fill="none" xmlns="http://www.w3.org/2000/svg">
<g clip-path="url(#clip0_174_2660)">
<path d="M181.325 268.249L197.257 313.378L240.629 292.773L220.018 336.006L265.159 352.061L220.018 368.115L240.502 411.348L197.257 390.87L181.199 435.873L165.14 390.87L121.895 411.348L142.506 368.115L97.3643 352.061L142.506 336.006L122.021 292.773L165.266 313.378L181.325 268.249Z" fill="#EAD5B9"/>
<path d="M774.361 315.401L790.42 360.53L833.665 340.051L813.054 383.285L858.195 399.339L813.054 415.394L833.538 458.627L790.293 438.022L774.235 483.151L758.302 438.022L714.931 458.501L735.542 415.267L690.4 399.213L735.542 383.285L715.058 339.925L758.302 360.53L774.361 315.401Z" fill="#EAD5B9"/>
<path d="M68.4073 214.523C77.416 214.523 84.719 207.222 84.719 198.216C84.719 189.21 77.416 181.909 68.4073 181.909C59.3987 181.909 52.0957 189.21 52.0957 198.216C52.0957 207.222 59.3987 214.523 68.4073 214.523Z" fill="#EAD5B9"/>
<path d="M445.166 195.181C452.163 165.557 433.814 135.871 404.182 128.876C374.55 121.881 344.856 140.226 337.86 169.85C330.863 199.474 349.212 229.159 378.844 236.154C408.476 243.149 438.169 224.805 445.166 195.181Z" fill="#EAD5B9"/>
<path d="M687.491 267.743H560.412V381.515H687.491V267.743Z" fill="#EAD5B9"/>
<path d="M164.76 218.063L239.49 210.225C244.801 209.719 252.008 204.916 250.996 194.803C250.491 189.493 242.272 184.058 236.961 184.69L171.588 196.067L153.506 136.653L143.517 139.813L154.138 210.478C155.276 215.282 159.828 218.568 164.76 218.063Z" fill="#D67160"/>
<path d="M250.997 194.676C250.491 189.367 242.272 183.931 236.961 184.563L212.557 188.861C211.292 196.825 211.166 204.916 211.798 213.006L239.49 210.099C244.801 209.593 252.008 204.916 250.997 194.676Z" fill="#6059C9"/>
<path d="M156.921 120.598C155.15 120.092 151.863 128.183 151.863 128.183C151.863 128.183 146.046 111.876 143.644 112.508C143.517 112.508 143.517 112.634 143.391 112.634C143.264 113.266 143.138 113.772 143.012 114.404C143.264 117.943 146.299 125.528 146.299 125.528C146.299 125.528 145.035 123 143.517 120.345C143.391 122.368 143.012 124.517 142.379 126.413C142.632 126.792 142.759 126.919 142.759 126.919C142.759 126.919 142.632 126.792 142.379 126.413C141.368 129.321 139.977 132.102 138.333 134.883C141.368 139.56 144.276 143.732 144.276 143.732L153.76 139.054C153.76 139.054 159.955 121.483 156.921 120.598Z" fill="#D67160"/>
<path d="M139.724 124.39C138.459 124.011 137.068 124.77 136.31 125.907C135.677 127.045 135.551 128.309 135.804 129.573C136.183 132.355 137.574 135.009 139.85 137.032C141.367 138.296 143.517 139.307 145.287 138.549C146.805 137.917 147.563 136.147 147.943 134.63C148.954 130.838 149.839 123.506 146.552 120.472C143.643 117.691 136.689 120.725 139.724 124.39Z" fill="#D67160"/>
<path d="M238.479 441.688C241.514 446.365 241.514 452.812 238.479 457.11C236.456 460.018 233.295 461.787 230.639 464.063C225.582 468.614 222.547 475.566 222.547 482.772L262.504 464.189L249.48 436.125L238.479 441.688Z" fill="#A098A5"/>
<path d="M230.765 463.936C233.421 461.661 236.456 459.891 238.605 456.984C240.375 454.582 241.134 451.295 240.755 448.135C242.146 449.02 243.537 449.905 244.927 450.663C246.318 451.422 247.709 452.054 249.227 452.306C250.744 452.559 252.261 452.18 253.399 451.295C254.285 450.663 255.043 449.778 255.549 448.767L262.63 463.936L222.673 482.519C222.673 475.44 225.708 468.487 230.765 463.936Z" fill="#467B6C"/>
<path d="M224.696 484.542L263.515 466.465C264.653 465.959 265.159 464.568 264.653 463.431L264.527 463.304C264.021 462.166 262.63 461.661 261.492 462.166L222.673 480.244C221.535 480.749 221.029 482.14 221.535 483.277L221.661 483.404C222.167 484.542 223.558 485.047 224.696 484.542Z" fill="#A098A5"/>
<path d="M246.319 455.72C246.572 455.087 246.192 454.329 245.56 454.076L236.456 450.284C235.824 450.031 235.191 450.284 234.939 451.042C234.686 451.674 235.065 452.433 235.697 452.686L244.801 456.478C245.434 456.731 246.192 456.478 246.319 455.72Z" fill="#A098A5"/>
<path d="M243.789 460.65C244.042 460.018 243.663 459.259 243.031 459.006L233.927 455.214C233.294 454.961 232.662 455.214 232.409 455.972C232.156 456.604 232.536 457.363 233.168 457.616L242.272 461.408C242.904 461.535 243.663 461.282 243.789 460.65Z" fill="#A098A5"/>
<path d="M289.69 443.71C290.195 448.893 295.38 468.234 290.448 470.763C287.034 472.532 283.241 472.912 279.574 473.923C272.493 475.945 266.17 481.002 262.63 487.323L309.668 486.185L303.978 438.148L289.69 443.71Z" fill="#A098A5"/>
<path d="M307.898 471.142C306.634 473.544 304.484 475.44 301.702 475.44C297.656 475.44 293.863 471.9 291.84 467.981C291.587 468.234 291.46 468.866 291.46 469.751C291.46 470.257 290.828 470.51 290.449 470.763C286.529 472.659 283.241 472.912 279.574 473.923C274.011 475.566 268.826 479.106 265.159 483.657C264.021 485.174 265.033 487.323 266.93 487.323L307.14 486.311C308.404 486.311 309.416 485.174 309.289 483.783C309.416 483.657 308.278 474.934 307.898 471.142Z" fill="#467B6C"/>
<path d="M263.515 489.724L309.289 488.587C310.554 488.587 311.692 487.449 311.818 486.185C311.944 484.921 310.933 483.909 309.542 483.909L263.768 485.047C262.504 485.047 261.366 486.185 261.239 487.449C261.239 488.713 262.251 489.724 263.515 489.724Z" fill="#A098A5"/>
<path d="M293.61 475.693C294.116 475.187 294.116 474.429 293.736 473.923L286.908 467.097C286.403 466.591 285.644 466.591 285.138 467.097C284.632 467.602 284.632 468.361 285.012 468.866L291.84 475.693C292.346 476.198 293.104 476.198 293.61 475.693Z" fill="#A098A5"/>
<path d="M288.804 478.979C289.31 478.474 289.31 477.715 288.931 477.21L282.103 470.383C281.597 469.878 280.838 469.878 280.332 470.383C279.827 470.889 279.827 471.648 280.206 472.153L287.034 478.979C287.54 479.485 288.299 479.485 288.804 478.979Z" fill="#A098A5"/>
<path d="M277.297 152.328C276.791 154.983 283.999 178.495 283.872 181.15C283.746 185.195 274.263 182.667 277.044 185.701C275.274 188.103 272.619 190.125 269.584 190.884C266.676 191.642 263.515 191.263 260.733 189.999C259.974 189.62 259.215 189.241 258.583 188.861C257.698 188.356 256.813 187.85 255.928 187.344C259.721 180.897 262.882 173.692 261.871 166.233C263.767 165.854 255.548 155.994 257.445 155.615C258.204 155.488 264.526 154.224 265.285 154.35C266.802 154.35 276.033 152.581 277.297 152.328Z" fill="#D67160"/>
<path d="M261.997 166.233C262.629 170.784 261.618 175.209 259.974 179.38C263.894 177.611 267.434 174.703 268.825 170.784C270.848 165.475 270.343 159.281 270.216 153.592C267.94 153.971 265.917 154.351 265.411 154.224C264.526 154.224 258.33 155.362 257.571 155.488C255.675 155.994 263.894 165.981 261.997 166.233Z" fill="#332B33"/>
<path d="M237.34 277.098C237.34 277.477 237.34 277.983 237.466 278.362C238.099 290.245 240.248 302.127 249.479 310.471C260.606 320.457 278.562 324.629 290.195 313.125C298.54 304.782 297.655 288.854 297.529 277.224H237.34V277.098Z" fill="#467B6C"/>
<path d="M224.316 234.876C224.948 245.494 226.592 256.113 228.868 266.605C229.627 270.145 230.512 273.937 233.167 276.718C237.467 281.269 244.674 282.028 250.996 282.281C258.836 282.66 266.676 282.533 274.516 282.154C281.47 281.775 290.448 282.407 296.897 280.132C302.966 277.983 304.357 271.915 304.736 266.858C305.495 258.894 305.116 251.057 306.254 243.093C307.392 234.876 309.921 226.659 312.197 218.695C313.588 213.765 315.231 208.708 315.484 203.652C315.737 198.469 314.473 193.159 310.806 189.114C307.265 185.322 301.955 183.173 296.644 181.782C280.711 177.863 263.641 180.265 247.203 181.529C241.513 181.909 235.191 182.414 231.144 186.08C228.11 188.861 227.098 192.78 226.339 196.573C224.063 209.087 223.557 221.982 224.316 234.876Z" fill="#6059C9"/>
<path d="M327.245 322.733C325.474 323.112 324.463 315.022 324.463 315.022C324.463 315.022 324.969 325.64 323.704 326.146C321.555 326.904 321.175 314.895 321.175 314.895C321.175 314.895 321.302 328.042 318.899 327.789C316.497 327.536 317.761 314.389 317.761 314.389C317.761 314.389 315.738 326.525 313.715 326.019C311.692 325.387 314.853 309.839 314.853 309.839C314.853 309.839 308.531 314.895 307.393 313.631C305.496 311.608 318.393 300.231 318.393 300.231L327.751 300.737C327.751 300.61 329.015 322.354 327.245 322.733Z" fill="#D67160"/>
<path d="M259.595 290.118C253.4 286.326 245.307 288.348 241.514 294.543L202.062 359.393C199.912 362.932 199.533 367.23 201.051 371.023L229.122 441.182C229.501 442.193 230.133 443.204 230.766 444.089C236.076 445.227 241.008 444.342 245.307 440.676C248.721 437.642 251.25 433.85 252.894 429.678L227.984 367.357L264.021 308.069C267.688 302.001 265.791 293.911 259.595 290.118Z" fill="#467B6C"/>
<path d="M267.182 139.434C263.641 140.192 261.618 143.858 262.124 147.271C262.63 150.558 265.032 153.466 267.814 155.867C269.205 151.822 270.216 148.283 271.481 144.237C271.987 142.721 272.366 140.698 270.849 139.813C270.216 139.181 268.193 139.307 267.182 139.434Z" fill="#2D201B"/>
<path d="M250.364 158.396C250.364 158.522 250.364 158.649 250.364 158.775C250.364 158.901 250.364 158.901 250.364 159.028V159.154C250.364 159.281 250.364 159.407 250.364 159.533V159.66C250.364 159.786 250.364 160.039 250.491 160.166C250.491 160.292 250.617 160.545 250.617 160.671C250.617 160.798 250.617 160.798 250.617 160.924V161.05C250.617 161.177 250.744 161.303 250.744 161.556C250.87 161.935 250.997 162.315 251.123 162.694C251.123 162.82 251.249 162.82 251.249 162.947C251.629 163.705 252.008 164.464 252.514 165.096C252.64 165.222 252.767 165.348 252.893 165.475C252.893 165.601 253.02 165.601 253.02 165.728C253.146 165.854 253.273 165.981 253.399 166.107C253.652 166.36 253.905 166.613 254.284 166.865C254.411 166.992 254.537 167.118 254.663 167.245C255.296 167.75 255.801 168.13 256.56 168.509C257.066 168.762 257.572 169.014 258.078 169.141C258.204 169.141 258.33 169.267 258.457 169.267C258.583 169.267 258.583 169.267 258.71 169.394H258.836H258.963C259.089 169.394 259.216 169.52 259.342 169.52C260.227 169.773 260.986 169.773 261.871 169.773C262.124 169.773 262.25 169.773 262.503 169.773C264.653 169.647 266.676 169.014 268.446 167.877C271.734 165.854 273.883 162.188 273.883 158.017V155.235L274.01 147.019V144.49V140.951C274.01 140.698 274.01 140.571 274.01 140.319C274.01 140.192 274.01 140.066 274.01 140.066C274.01 139.939 274.01 139.939 274.01 139.813C274.01 139.687 274.01 139.687 274.01 139.56V139.434V139.307V139.181C274.01 139.055 274.01 139.055 274.01 138.928C274.01 138.802 274.01 138.802 274.01 138.675V138.549C274.01 138.422 273.883 138.296 273.883 138.043C273.883 137.917 273.883 137.917 273.757 137.79C273.757 137.664 273.757 137.664 273.63 137.538C273.63 137.411 273.63 137.411 273.504 137.285C273.504 137.158 273.504 137.158 273.378 137.032C273.378 136.906 273.378 136.906 273.251 136.779C273.251 136.653 273.251 136.653 273.125 136.526C273.125 136.4 272.998 136.273 272.998 136.021C272.998 136.021 272.998 136.021 272.998 135.894C272.998 135.768 272.872 135.641 272.872 135.515C272.872 135.515 272.872 135.515 272.872 135.389C272.872 135.262 272.745 135.136 272.619 135.009C270.596 131.343 266.802 128.815 262.377 128.815C257.445 128.815 253.02 131.849 251.376 136.273C250.87 137.538 250.491 139.055 250.491 140.571L250.364 157.637C250.364 158.017 250.364 158.143 250.364 158.396Z" fill="#D67160"/>
<path d="M267.562 282.66L295.127 302.633L297.403 367.609C299.679 390.111 307.392 442.952 307.392 443.078C303.852 445.859 293.989 454.582 285.517 454.329C272.62 387.836 259.216 314.769 267.562 282.66Z" fill="#467B6C"/>
<path d="M270.343 313.378C263.515 312.24 257.066 310.85 250.87 307.69" stroke="white" stroke-width="0.6171" stroke-miterlimit="10" stroke-linecap="round" stroke-linejoin="round"/>
<path d="M245.686 318.561L218.247 366.219L245.307 440.803" stroke="white" stroke-width="0.6291" stroke-miterlimit="10" stroke-linecap="round" stroke-linejoin="round"/>
<path d="M287.54 307.816L285.644 381.136L299.426 447.882" stroke="white" stroke-width="0.6291" stroke-miterlimit="10" stroke-linecap="round" stroke-linejoin="round"/>
<path d="M274.769 152.328C270.976 153.718 266.424 150.305 266.171 145.881C266.044 143.732 266.424 141.077 264.653 140.066C264.021 139.687 263.262 139.687 262.504 139.813C242.146 141.456 220.776 144.743 201.683 136.273C195.74 133.619 190.05 129.7 186.636 123.758C183.222 117.691 182.716 109.221 186.762 103.785C191.061 97.8438 199.154 97.0853 205.603 99.74C212.051 102.395 217.236 107.704 222.42 112.634C227.604 117.564 233.042 122.368 239.238 125.655C245.433 128.941 252.514 130.458 259.216 128.815C261.492 128.309 263.768 127.298 266.044 127.677C268.32 128.057 270.596 130.585 269.964 132.987C270.47 130.838 274.01 131.09 275.401 132.481C276.792 133.872 277.172 136.273 277.172 138.422C277.298 143.1 275.907 147.777 274.769 152.328Z" fill="#774630"/>
<path d="M280.459 151.19C280.459 153.718 278.436 155.741 275.907 155.741C273.378 155.741 271.354 153.718 271.354 151.19C271.354 148.662 273.378 146.639 275.907 146.639C278.436 146.639 280.459 148.662 280.459 151.19Z" fill="#D67160"/>
<path d="M309.036 189.62L354.557 234.244L355.315 235.002C358.476 238.036 358.982 242.713 357.085 246.379L326.991 303.392C325.853 305.667 322.945 306.552 320.669 305.288C318.646 304.276 317.76 302.001 318.393 299.852L336.475 237.909L339.004 250.045L293.483 205.421C289.057 201.123 289.057 194.044 293.356 189.62C297.529 185.322 304.61 185.322 309.036 189.62Z" fill="#D67160"/>
<path d="M291.207 215.914L317.888 231.715L332.808 209.846L306.507 185.322C306.507 185.322 281.597 179.254 291.207 215.914Z" fill="#6059C9"/>
<path d="M144.023 33.4995L143.391 231.21" stroke="#467B6C" stroke-width="2.0771" stroke-miterlimit="10" stroke-linecap="round" stroke-linejoin="round"/>
<path d="M248.594 0.884888H26.0479V90.5118H248.594V0.884888Z" fill="#467B6C"/>
<path d="M145.736 23.2H138.952L135.048 52.896H134.92L131.08 23.2H125.064L121.224 52.896H121.096L117.192 23.2H110.216L117.128 68H124.04L127.944 41.312H128.072L131.912 68H138.824L145.736 23.2ZM169.658 23.2H150.586V68H169.658V61.728H157.37V48.416H167.29V42.144H157.37V29.472H169.658V23.2Z" fill="white"/>
<path d="M246.444 255.607C246.444 255.607 269.458 247.138 285.137 220.464" stroke="#467B6C" stroke-width="1.2763" stroke-miterlimit="10" stroke-linecap="round" stroke-linejoin="round"/>
<path d="M258.71 153.845L258.583 156.12H256.687L258.204 158.269" stroke="#472A1C" stroke-width="0.3825" stroke-miterlimit="10" stroke-linecap="round" stroke-linejoin="round"/>
<path d="M249.858 153.213C249.858 153.845 250.996 154.35 252.514 154.477C253.02 154.477 253.525 154.603 254.031 154.477C254.663 154.477 255.169 154.35 255.675 154.35C257.066 154.098 258.077 153.592 258.077 152.96C258.077 152.454 257.192 151.949 255.928 151.696C255.296 151.569 254.663 151.569 253.905 151.569C253.272 151.569 252.64 151.696 252.134 151.822C250.744 152.075 249.858 152.581 249.858 153.213Z" fill="white"/>
<path d="M251.755 152.833C251.755 153.466 252.008 153.971 252.514 154.35C253.019 154.35 253.525 154.477 254.031 154.35C254.663 154.35 255.169 154.224 255.675 154.224C256.054 153.845 256.307 153.339 256.307 152.833C256.307 152.328 256.181 151.949 255.928 151.696C255.295 151.569 254.663 151.569 253.904 151.569C253.272 151.569 252.64 151.696 252.134 151.822C251.881 152.075 251.755 152.454 251.755 152.833Z" fill="#362F36"/>
<path d="M260.227 152.834C260.227 153.466 261.365 153.971 262.883 154.098C263.389 154.098 263.894 154.224 264.4 154.098C265.032 154.098 265.538 153.971 266.044 153.971C267.435 153.718 268.447 153.213 268.447 152.581C268.447 152.075 267.561 151.569 266.297 151.317C265.665 151.19 265.032 151.19 264.274 151.19C263.642 151.19 263.009 151.317 262.504 151.443C261.113 151.696 260.101 152.328 260.227 152.834Z" fill="white"/>
<path d="M262.124 152.581C262.124 153.213 262.377 153.718 262.883 154.098C263.388 154.098 263.894 154.224 264.4 154.098C265.032 154.098 265.538 153.971 266.044 153.971C266.423 153.592 266.676 153.086 266.676 152.581C266.676 152.075 266.55 151.696 266.297 151.443C265.665 151.317 265.032 151.317 264.274 151.317C263.641 151.317 263.009 151.443 262.503 151.569C262.25 151.822 262.124 152.202 262.124 152.581Z" fill="#362F36"/>
<path d="M259.722 159.154C259.722 159.154 262.124 156.626 264.653 157.637" stroke="#472A1C" stroke-width="0.3825" stroke-miterlimit="10" stroke-linecap="round" stroke-linejoin="round"/>
<path d="M259.216 150.305L265.285 147.524" stroke="#472A1C" stroke-width="1.2763" stroke-miterlimit="10" stroke-linecap="round" stroke-linejoin="round"/>
<path d="M256.308 149.547L250.238 146.766" stroke="#472A1C" stroke-width="1.2763" stroke-miterlimit="10" stroke-linecap="round" stroke-linejoin="round"/>
<path d="M447.517 374.603C449.058 368.08 445.018 361.544 438.493 360.004C431.969 358.463 425.431 362.503 423.89 369.025C422.349 375.548 426.39 382.084 432.914 383.624C439.439 385.165 445.977 381.126 447.517 374.603Z" fill="#EAD5B9"/>
<path d="M473.797 140.192C479.487 140.571 485.177 141.33 490.488 143.479C495.799 145.628 500.477 149.42 502.88 154.603C504.65 158.648 505.156 163.579 508.696 166.233C511.604 168.256 515.524 167.877 518.812 166.992C522.226 165.98 525.514 164.463 529.054 164.463C533.353 164.463 537.526 166.612 540.94 169.267C543.216 171.037 545.492 173.06 546.883 175.588C550.424 181.908 547.642 190.884 541.067 194.044C536.009 196.572 529.813 195.561 524.629 193.538C519.444 191.516 514.513 188.482 509.076 186.712C500.477 183.931 490.361 184.184 483.913 177.863C476.958 171.163 477.717 159.154 483.407 151.443" fill="#332B33"/>
<path d="M406.78 222.74L471.142 215.914C475.694 215.408 479.108 211.363 478.602 206.685C478.096 202.135 474.05 198.721 469.371 199.227L412.47 205.169L399.32 163.073L388.951 160.545L397.676 216.04C398.561 220.338 402.481 223.246 406.78 222.74Z" fill="#AE4E3E"/>
<path d="M405.137 148.156C403.746 147.398 399.446 153.718 399.446 153.718C399.446 153.718 399.446 149.926 399.194 147.019C399.067 145.375 397.929 144.111 396.285 143.985L394.389 143.858C392.492 143.732 390.848 144.743 390.089 146.513C388.698 149.8 386.675 154.983 386.549 155.235C388.193 160.418 389.836 165.728 389.836 165.728L398.561 163.579C398.688 163.579 407.413 149.547 405.137 148.156Z" fill="#AE4E3E"/>
<path d="M467.475 263.319C467.475 261.422 467.475 259.526 467.475 257.63L496.557 251.562C495.799 257.251 498.707 262.939 502.5 267.49C506.294 272.041 506.42 272.041 510.087 276.718C516.789 285.062 520.329 296.692 518.686 307.058L472.912 315.906L467.475 263.319Z" fill="#AE4E3E"/>
<path d="M468.107 270.019L487.454 267.996C488.845 267.869 490.362 267.743 491.753 267.617C495.041 267.364 498.455 266.985 501.742 266.605C501.995 266.858 502.122 267.111 502.374 267.364C506.168 271.915 506.294 271.915 509.961 276.592C516.663 284.935 520.203 296.565 518.56 306.931L472.786 315.78L468.107 270.019Z" fill="#5D515D"/>
<path d="M493.397 193.159C488.086 190.758 485.81 176.346 486.442 170.531L474.935 179.76C475.441 183.805 473.292 186.712 471.268 190.252C470.257 192.022 468.992 194.044 467.096 194.676C470.257 198.342 475.441 199.859 480.246 199.606C485.051 199.354 490.615 197.078 493.397 193.159Z" fill="#AE4E3E"/>
<path d="M471.395 189.999C473.797 188.735 475.82 187.091 477.338 185.195C478.728 183.552 479.866 181.403 480.878 179.38L474.809 179.886C475.314 183.552 473.291 186.586 471.395 189.999Z" fill="#332B33"/>
<path d="M475.694 182.667C469.119 183.173 463.176 178.243 462.67 171.543L461.279 154.098C460.773 147.524 465.704 141.583 472.406 141.077C478.981 140.571 484.924 145.502 485.43 152.201L486.821 169.646C487.327 176.22 482.395 182.161 475.694 182.667Z" fill="#AE4E3E"/>
<path d="M481.636 159.786C479.993 157.258 480.878 153.845 480.751 151.064C480.498 147.271 476.326 145.754 473.417 147.524C471.015 149.041 468.486 150.179 465.578 150.432C463.934 150.558 462.669 150.052 461.784 149.42C463.175 144.869 467.348 141.33 472.406 140.951C478.981 140.445 484.924 145.375 485.43 152.075L486.315 163.073C484.418 162.567 482.774 161.43 481.636 159.786Z" fill="#332B33"/>
<path d="M493.523 164.59C493.776 167.118 491.753 169.394 489.224 169.646C486.695 169.899 484.419 167.877 484.166 165.348C483.913 162.82 485.936 160.545 488.465 160.292C490.994 160.165 493.27 162.062 493.523 164.59Z" fill="#AE4E3E"/>
<path d="M518.18 295.933C520.708 304.276 518.18 313.631 515.398 321.595C511.478 332.719 507.558 343.97 504.018 355.221C500.983 365.46 496.304 376.838 498.833 387.583C500.983 396.305 503.385 398.707 504.27 410.843C505.535 428.035 503.006 445.986 496.431 454.708L483.912 454.455L478.728 383.411C478.602 382.273 478.728 381.136 478.855 380.124L488.717 305.667L518.18 295.933Z" fill="#5D515D"/>
<path d="M472.28 310.85C472.027 307.184 474.05 305.035 477.844 302.886C481.637 300.863 486.568 300.737 490.615 302.001C497.569 304.15 502.248 309.839 504.145 315.78C506.041 321.848 505.409 328.295 504.271 334.489C502.88 341.821 502.248 350.291 499.34 357.37C519.192 369.379 531.331 390.49 549.033 404.649C548.022 408.314 547.769 410.337 544.734 413.245C529.56 406.418 512.616 400.603 500.604 390.364C493.776 384.549 487.327 378.228 483.281 370.77C478.729 362.426 477.338 353.072 476.2 343.97C474.682 333.478 473.039 321.595 472.28 310.85Z" fill="#5D515D"/>
<path d="M508.949 227.67C507.938 228.049 515.398 271.156 514.26 271.535C505.788 273.937 497.063 275.328 488.338 276.086C479.487 276.845 471.015 276.718 462.29 274.317C461.658 274.19 452.554 231.083 451.922 230.957C449.013 225.9 444.967 221.602 445.726 214.65C446.611 206.938 452.048 200.112 459.888 196.825C462.543 195.688 465.325 194.803 468.107 194.044C475.82 192.022 483.913 191.389 491.879 192.401C492.638 192.527 493.396 192.527 494.029 192.654C495.04 192.78 496.052 193.033 497.063 193.159C503.006 194.423 509.076 196.952 512.49 201.123C512.616 201.25 512.616 201.25 512.743 201.376C513.754 202.64 514.513 204.157 515.019 205.801C515.651 208.329 515.398 210.984 514.639 213.512C513.248 218.189 510.34 222.866 508.949 227.67Z" fill="#332B33"/>
<path d="M484.166 454.582C485.051 460.523 482.27 466.717 477.591 469.498C474.43 471.268 470.636 471.521 467.096 472.532C460.268 474.555 454.451 479.864 451.29 486.817L497.57 487.576L497.19 454.329L484.166 454.582Z" fill="#7C3F33"/>
<path d="M452.428 489.724L497.443 490.483C498.707 490.483 499.719 489.345 499.719 487.955C499.719 486.564 498.581 485.3 497.317 485.3L452.301 484.542C451.037 484.542 450.025 485.679 450.025 487.07C450.025 488.46 451.163 489.598 452.428 489.724Z" fill="#F2D5A7"/>
<path d="M485.684 472.027C486.19 471.521 486.19 470.636 485.684 470.131L478.603 462.167C478.097 461.661 477.338 461.661 476.832 462.167C476.327 462.672 476.327 463.557 476.832 464.063L483.913 472.027C484.419 472.532 485.178 472.532 485.684 472.027Z" fill="#F2D5A7"/>
<path d="M481.131 475.44C481.637 474.934 481.637 474.049 481.131 473.544L474.05 465.58C473.544 465.074 472.786 465.074 472.28 465.58C471.774 466.085 471.774 466.97 472.28 467.476L479.361 475.44C479.867 476.072 480.625 476.072 481.131 475.44Z" fill="#F2D5A7"/>
<path d="M534.365 408.947C539.55 410.716 542.458 415.141 542.837 420.45C543.09 423.99 541.826 427.403 541.32 430.942C540.308 437.769 542.331 445.227 546.883 450.916L565.724 410.716L536.009 392.513L534.365 408.947Z" fill="#7C3F33"/>
<path d="M549.538 451.169L567.873 411.98C568.379 410.843 567.873 409.452 566.609 408.82C565.471 408.188 564.08 408.694 563.448 409.705L545.113 448.893C544.607 450.031 545.113 451.421 546.377 452.053C547.642 452.686 549.033 452.306 549.538 451.169Z" fill="#F2D5A7"/>
<path d="M548.021 414.509C547.768 413.877 547.01 413.497 546.378 413.75L537.021 416.531C536.388 416.784 536.009 417.416 536.262 418.048C536.515 418.68 537.273 419.06 537.906 418.807L547.263 416.026C547.895 415.773 548.274 415.141 548.021 414.509Z" fill="#F2D5A7"/>
<path d="M549.159 419.944C548.906 419.312 548.147 418.933 547.515 419.186L538.158 421.967C537.526 422.22 537.147 422.852 537.4 423.484C537.652 424.116 538.411 424.495 539.043 424.242L548.4 421.461C549.033 421.208 549.412 420.576 549.159 419.944Z" fill="#F2D5A7"/>
<path d="M484.166 343.97C484.039 346.119 483.913 348.268 483.66 350.417" stroke="white" stroke-width="0.6297" stroke-miterlimit="10" stroke-linecap="round" stroke-linejoin="round"/>
<path d="M479.866 297.324C481.51 300.231 484.039 302.507 486.315 305.161C487.074 306.299 486.694 307.816 486.694 308.827C486.315 316.286 485.556 323.744 485.051 331.329" stroke="white" stroke-width="0.6297" stroke-miterlimit="10" stroke-linecap="round" stroke-linejoin="round"/>
<path d="M524.376 213.006L549.413 254.091L549.792 254.723C550.424 255.86 550.804 256.998 550.677 258.136L549.16 309.839C549.033 312.367 547.01 314.39 544.481 314.263C542.079 314.137 540.309 312.367 540.056 310.092L534.998 258.515L536.262 262.56L508.823 223.119C505.915 218.821 506.927 213.006 511.099 210.099C515.399 207.191 521.215 208.203 524.123 212.374C524.123 212.627 524.25 212.88 524.376 213.006Z" fill="#AE4E3E"/>
<path d="M530.066 221.223C528.802 221.602 526.02 223.246 524.756 223.625C521.721 224.636 518.686 226.027 515.525 227.038C513.375 227.797 511.226 228.429 508.95 228.429C505.283 224.51 501.236 220.465 497.696 214.144C495.42 210.099 492.638 203.02 495.04 198.722C497.443 194.424 505.662 193.539 511.352 198.342C521.468 206.812 524.503 212.374 530.066 221.223Z" fill="#332B33"/>
<path d="M470.635 166.486L470.509 168.762H468.612L470.13 170.911" stroke="#472A1C" stroke-width="0.3825" stroke-miterlimit="10" stroke-linecap="round" stroke-linejoin="round"/>
<path d="M461.784 165.854C461.784 166.486 462.922 166.992 464.44 167.118C464.945 167.118 465.451 167.118 465.957 167.118C466.589 167.118 467.095 166.992 467.601 166.992C468.992 166.739 470.003 166.233 470.003 165.601C470.003 165.096 469.118 164.59 467.854 164.337C467.221 164.211 466.589 164.211 465.83 164.211C465.198 164.211 464.566 164.337 464.06 164.464C462.669 164.716 461.784 165.222 461.784 165.854Z" fill="white"/>
<path d="M463.681 165.475C463.681 166.107 463.934 166.613 464.439 166.992C464.945 166.992 465.451 166.992 465.957 166.992C466.589 166.992 467.095 166.865 467.601 166.865C467.98 166.486 468.233 165.98 468.233 165.475C468.233 164.969 468.106 164.59 467.853 164.337C467.221 164.211 466.589 164.211 465.83 164.211C465.198 164.211 464.566 164.337 464.06 164.464C463.807 164.716 463.681 165.096 463.681 165.475Z" fill="#362F36"/>
<path d="M472.153 165.475C472.153 166.107 473.291 166.613 474.809 166.739C475.315 166.739 475.82 166.739 476.326 166.739C476.958 166.739 477.464 166.613 477.97 166.613C479.361 166.36 480.372 165.854 480.372 165.222C480.372 164.716 479.487 164.211 478.223 163.958C477.591 163.831 476.958 163.831 476.2 163.831C475.567 163.831 474.935 163.958 474.429 164.084C473.038 164.337 472.153 164.969 472.153 165.475Z" fill="white"/>
<path d="M474.05 165.222C474.05 165.854 474.303 166.36 474.808 166.739C475.314 166.739 475.82 166.739 476.326 166.739C476.958 166.739 477.464 166.613 477.97 166.613C478.349 166.233 478.602 165.728 478.602 165.222C478.602 164.716 478.475 164.337 478.223 164.084C477.59 163.958 476.958 163.958 476.199 163.958C475.567 163.958 474.935 164.084 474.429 164.211C474.176 164.464 474.05 164.843 474.05 165.222Z" fill="#362F36"/>
<path d="M471.521 172.68C471.521 172.68 474.049 169.267 476.578 170.279" stroke="#472A1C" stroke-width="0.3825" stroke-miterlimit="10" stroke-linecap="round" stroke-linejoin="round"/>
<path d="M471.269 162.947L477.338 160.166" stroke="#332B33" stroke-width="1.2763" stroke-miterlimit="10" stroke-linecap="round" stroke-linejoin="round"/>
<path d="M468.234 162.188L462.164 159.407" stroke="#332B33" stroke-width="1.2763" stroke-miterlimit="10" stroke-linecap="round" stroke-linejoin="round"/>
<path d="M557.252 327.284C555.987 328.295 552.067 322.354 552.067 322.354C552.067 322.354 556.746 330.318 555.861 331.329C554.596 332.846 549.412 323.618 549.412 323.618C549.412 323.618 554.849 333.731 552.826 334.489C550.803 335.248 546.63 324.629 546.63 324.629C546.63 324.629 549.918 334.868 548.147 335.248C546.377 335.627 541.952 319.067 541.952 319.067C541.952 319.067 540.94 328.927 538.285 328.169C536.009 327.537 540.687 308.195 540.687 308.195L548.906 309.965C548.78 309.965 558.516 326.272 557.252 327.284Z" fill="#AE4E3E"/>
<path d="M426.126 203.652C426.126 203.652 430.678 233.232 459.002 239.047C487.2 244.989 468.359 193.918 468.359 193.918L426.126 203.652Z" fill="#332B33"/>
<path d="M398.308 52.3351L397.55 250.045" stroke="#467B6C" stroke-width="2.0771" stroke-miterlimit="10" stroke-linecap="round" stroke-linejoin="round"/>
<path d="M510.719 0H288.173V89.6269H510.719V0Z" fill="#D03F23"/>
<path d="M495.546 440.044C495.799 442.32 496.052 444.595 496.305 446.744" stroke="white" stroke-width="0.6297" stroke-miterlimit="10" stroke-linecap="round" stroke-linejoin="round"/>
<path d="M488.591 384.043C490.74 399.718 492.637 415.394 494.534 431.069" stroke="white" stroke-width="0.6297" stroke-miterlimit="10" stroke-linecap="round" stroke-linejoin="round"/>
<path d="M506.8 301.243C500.351 326.399 494.408 351.302 488.971 376.079" stroke="white" stroke-width="0.6297" stroke-miterlimit="10" stroke-linecap="round" stroke-linejoin="round"/>
<path d="M482.016 147.524C484.292 150.937 484.672 158.143 484.798 162.314C493.144 156.373 502.374 148.409 512.237 145.122C505.535 141.709 478.729 131.09 465.578 143.985C465.578 143.985 478.855 142.72 482.016 147.524Z" fill="#D34A37"/>
<path d="M336.6 23.2H327.96L320.216 68H327L328.472 57.824H335.96L337.432 68H344.344L336.6 23.2ZM332.312 32.8L335.064 51.68H329.368L332.12 32.8H332.312ZM371.675 68L365.467 47.584C368.603 45.792 370.267 42.464 370.267 37.728V34.528C370.267 27.168 366.299 23.2 359.003 23.2H349.211V68H355.995V49.056H359.131L364.507 68H371.675ZM358.747 29.472C362.01 29.472 363.483 31.2 363.483 34.976V37.28C363.483 41.056 362.01 42.784 358.747 42.784H355.995V29.472H358.747ZM395.658 23.2H376.586V68H395.658V61.728H383.37V48.416H393.29V42.144H383.37V29.472H395.658V23.2ZM426.913 23.2H418.273L410.529 68H417.312L418.785 57.824H426.273L427.745 68H434.657L426.913 23.2ZM422.625 32.8L425.377 51.68H419.681L422.433 32.8H422.625ZM446.307 23.2H439.523V68H457.635V61.6H446.307V23.2ZM468.745 23.2H461.961V68H480.073V61.6H468.745V23.2Z" fill="white"/>
<path d="M467.348 257.63C467.348 257.63 492.131 236.266 492.131 226.659" stroke="white" stroke-width="0.6171" stroke-miterlimit="10" stroke-linecap="round" stroke-linejoin="round"/>
<path d="M666.122 205.927C659.547 211.489 650.949 215.155 643.109 219.074C633.246 224.004 622.751 228.555 611.497 229.187C600.37 229.819 588.231 225.647 582.415 216.672C576.851 207.95 578.115 196.825 579.886 186.712C580.897 181.15 582.667 174.576 588.231 172.427C593.795 170.152 600.496 173.818 603.278 178.875C606.187 183.931 604.922 190.125 606.439 195.688C607.957 201.503 610.106 209.972 610.106 209.972C610.486 212.627 628.821 204.41 630.591 203.399C638.683 199.101 647.029 193.665 656.765 193.159C660.685 193.033 663.594 193.791 666.249 196.699C669.031 199.606 669.284 203.146 666.122 205.927Z" fill="#6059C9"/>
<path d="M597.083 160.418C595.692 160.039 593.163 166.36 593.163 166.36C593.163 166.36 588.611 153.718 586.841 154.224C586.714 154.224 586.714 154.224 586.588 154.35C586.461 154.856 586.461 155.235 586.335 155.741C586.461 158.522 588.864 164.337 588.864 164.337C588.864 164.337 587.979 162.441 586.714 160.292C586.714 161.935 586.335 163.452 585.829 165.096C585.956 165.348 586.082 165.475 586.082 165.475C586.082 165.475 585.956 165.348 585.829 165.096C585.07 167.371 583.932 169.52 582.668 171.669C585.07 175.209 587.347 178.495 587.347 178.495L594.68 174.829C594.68 174.703 599.485 161.05 597.083 160.418Z" fill="#D67160"/>
<path d="M583.679 163.326C582.668 163.073 581.53 163.579 581.024 164.463C580.518 165.348 580.518 166.36 580.644 167.371C580.897 169.52 582.035 171.669 583.806 173.06C584.944 174.071 586.587 174.829 588.105 174.197C589.369 173.692 589.875 172.301 590.128 171.163C590.887 168.256 591.645 162.567 588.99 160.165C586.714 158.143 581.403 160.418 583.679 163.326Z" fill="#D67160"/>
<path d="M702.412 207.697C708.988 213.259 717.586 216.925 725.426 220.844C735.289 225.774 745.784 230.325 757.038 230.957C768.165 231.589 780.304 227.417 786.12 218.442C791.684 209.719 790.419 198.595 788.649 188.482C787.638 182.92 785.867 176.346 780.304 174.197C774.74 171.922 768.038 175.588 765.257 180.644C762.475 185.701 763.613 191.895 762.095 197.457C760.578 203.272 758.428 211.742 758.428 211.742C758.049 214.397 739.714 206.18 737.944 205.168C729.851 200.87 721.506 195.435 711.77 194.929C707.85 194.803 704.941 195.561 702.286 198.469C699.378 201.502 699.251 205.042 702.412 207.697Z" fill="#6059C9"/>
<path d="M771.453 162.314C772.844 161.935 775.373 168.256 775.373 168.256C775.373 168.256 779.925 155.615 781.695 156.12C781.821 156.12 781.821 156.12 781.948 156.247C782.074 156.752 782.074 157.132 782.201 157.637C782.074 160.418 779.672 166.233 779.672 166.233C779.672 166.233 780.557 164.337 781.821 162.188C781.821 163.831 782.201 165.348 782.706 166.992C782.58 167.245 782.454 167.371 782.454 167.371C782.454 167.371 782.58 167.245 782.706 166.992C783.465 169.267 784.603 171.416 785.868 173.565C783.465 177.105 781.189 180.392 781.189 180.392L773.855 176.726C773.729 176.599 769.05 162.947 771.453 162.314Z" fill="#D67160"/>
<path d="M784.729 165.096C785.741 164.843 786.879 165.348 787.385 166.233C787.891 167.118 787.891 168.13 787.764 169.141C787.511 171.29 786.373 173.439 784.603 174.829C783.465 175.841 781.821 176.599 780.304 175.967C779.039 175.461 778.534 174.071 778.281 172.933C777.522 170.026 776.763 164.337 779.419 161.935C781.695 160.039 787.006 162.315 784.729 165.096Z" fill="#D67160"/>
<path d="M648.42 456.604C649.178 462.166 646.523 467.981 641.971 470.636C638.936 472.406 635.269 472.659 631.982 473.67C625.406 475.693 619.716 480.749 616.682 487.323H660.938V456.225L648.42 456.604Z" fill="#A098A5"/>
<path d="M631.982 473.67C635.269 472.659 638.936 472.406 641.971 470.636C644.626 469.119 646.65 466.591 647.661 463.557C648.546 464.947 649.431 466.338 650.316 467.602C651.202 468.866 652.213 470.13 653.478 471.015C654.742 471.9 656.259 472.153 657.65 471.9C658.788 471.647 659.8 471.142 660.685 470.51V487.323H616.429C619.716 480.623 625.406 475.566 631.982 473.67Z" fill="#467B6C"/>
<path d="M617.693 489.724H660.558C661.823 489.724 662.834 488.713 662.834 487.449V487.196C662.834 485.932 661.823 484.921 660.558 484.921H617.693C616.429 484.921 615.417 485.932 615.417 487.196V487.449C615.417 488.713 616.429 489.724 617.693 489.724Z" fill="#A098A5"/>
<path d="M649.558 472.785C650.064 472.279 650.064 471.521 649.558 471.015L642.856 463.683C642.35 463.178 641.592 463.178 641.212 463.683C640.707 464.189 640.707 464.947 641.212 465.453L647.914 472.785C648.42 473.291 649.178 473.291 649.558 472.785Z" fill="#A098A5"/>
<path d="M645.258 476.072C645.764 475.566 645.764 474.808 645.258 474.302L638.556 466.97C638.051 466.464 637.292 466.464 636.913 466.97C636.407 467.476 636.407 468.234 636.913 468.74L643.614 476.072C643.994 476.577 644.752 476.577 645.258 476.072Z" fill="#A098A5"/>
<path d="M710.885 438.274C715.437 440.929 718.092 446.744 717.334 452.306C716.828 455.972 714.805 459.259 713.54 462.798C711.138 469.625 711.391 477.589 714.425 484.289L740.979 445.859L717.966 427.276L710.885 438.274Z" fill="#A098A5"/>
<path d="M713.54 462.799C714.805 459.259 716.702 455.972 717.334 452.306C717.84 449.146 717.081 445.733 715.564 443.078C717.081 443.078 718.598 443.204 720.116 443.204C721.633 443.204 723.15 443.078 724.541 442.446C725.932 441.814 727.07 440.803 727.702 439.286C728.208 438.148 728.461 437.01 728.461 435.746L740.853 445.859L714.299 484.289C711.391 477.715 711.138 469.751 713.54 462.799Z" fill="#467B6C"/>
<path d="M716.828 484.921L742.623 447.502C743.382 446.491 743.129 444.974 742.117 444.089C741.106 443.331 739.715 443.457 738.956 444.595L713.161 482.013C712.402 483.024 712.655 484.541 713.667 485.426C714.678 486.311 716.196 486.058 716.828 484.921Z" fill="#A098A5"/>
<path d="M723.529 446.997C723.403 446.238 722.77 445.859 722.138 445.859L712.781 447.376C712.149 447.502 711.643 448.135 711.77 448.893C711.896 449.652 712.528 450.031 713.16 450.031L722.517 448.514C723.15 448.387 723.655 447.629 723.529 446.997Z" fill="#A098A5"/>
<path d="M723.403 452.812C723.277 452.053 722.644 451.674 722.012 451.674L712.655 453.191C712.023 453.317 711.517 453.95 711.644 454.708C711.77 455.467 712.402 455.846 713.034 455.846L722.392 454.329C723.024 454.076 723.403 453.444 723.403 452.812Z" fill="#A098A5"/>
<path d="M690.527 160.418C690.021 163.073 692.803 177.99 693.688 180.518C694.321 182.414 695.585 188.608 698.367 191.516C696.597 193.918 687.998 195.055 685.09 195.814C682.182 196.572 679.02 196.193 676.365 194.929C675.606 194.55 674.974 194.171 674.215 193.791C673.33 193.286 672.445 192.78 671.687 192.274C675.48 185.827 678.641 178.748 677.63 171.29C679.526 170.91 682.182 170.152 683.952 169.773C684.711 169.646 685.596 169.52 686.354 169.52C687.619 169.646 689.263 160.671 690.527 160.418Z" fill="#D67160"/>
<path d="M675.732 183.805C678.008 183.046 680.032 181.782 681.675 179.886C684.204 176.978 684.963 173.439 684.836 169.646C684.457 169.646 684.204 169.773 683.825 169.773C681.928 170.152 679.273 170.91 677.503 171.29C678.135 175.588 677.25 179.759 675.732 183.805Z" fill="#332B33"/>
<path d="M671.56 240.058L686.481 239.174C698.367 238.542 708.609 247.643 709.241 259.526L710.758 287.59C710.632 287.843 710.632 288.222 710.632 288.601C710.632 292.899 712.023 291.888 712.276 291.888C712.276 291.888 712.781 299.725 708.862 310.976C706.333 318.435 699.631 323.744 691.791 324.376C691.538 324.376 691.412 324.376 691.159 324.376L676.238 325.261C664.858 325.893 654.616 309.333 653.099 297.576C653.099 297.071 652.846 292.899 652.593 289.612C652.593 289.612 651.075 263.192 651.075 262.813C650.57 250.93 659.8 240.691 671.56 240.058Z" fill="#467B6C"/>
<path d="M645.006 246.632C645.259 250.551 645.512 254.343 645.765 258.262C646.017 260.79 646.27 263.445 646.523 265.973C647.282 270.145 648.294 274.19 649.179 278.235C649.558 279.752 649.937 281.396 650.443 282.913C650.949 284.809 651.328 286.831 651.834 288.854C652.087 289.233 652.34 289.739 652.719 289.992C652.846 290.118 653.098 290.371 653.225 290.497C653.984 291.129 654.869 291.382 655.754 291.762C656.765 292.141 657.777 292.394 658.915 292.773C661.697 293.531 664.605 293.784 667.513 294.037C670.548 294.29 673.583 294.416 676.618 294.416C678.135 294.416 679.779 294.416 681.296 294.416C685.722 294.29 690.147 294.163 694.573 293.784C695.458 293.784 707.091 292.394 711.011 292.014C711.39 292.014 711.77 291.888 712.023 291.888H712.149C712.276 291.888 712.276 291.888 712.276 291.888C712.528 287.843 713.161 283.165 713.919 278.109C714.552 274.19 715.184 270.145 716.069 265.973C716.322 264.835 716.448 263.824 716.701 262.686C718.092 254.975 719.736 247.264 721 240.311C721.506 237.783 721.886 235.508 722.265 233.232C722.391 232.853 722.391 232.474 722.391 232.095V231.968C723.782 223.878 726.817 213.765 725.173 205.674C723.909 199.986 718.092 196.572 712.908 194.297C712.908 194.297 712.781 194.297 712.781 194.171C712.149 193.918 711.643 193.665 711.138 193.412C707.724 191.895 703.804 191.263 699.884 190.884C699.125 190.757 698.366 190.757 697.608 190.757H697.481C695.711 190.631 694.067 190.631 692.297 190.631C691.665 190.631 691.033 190.631 690.4 190.631C684.204 190.757 678.008 191.516 671.813 191.895C670.801 192.022 669.789 192.022 668.904 192.148C668.146 192.148 667.387 192.274 666.628 192.274C666.502 192.274 666.249 192.274 666.122 192.274C665.996 192.274 665.996 192.274 665.87 192.274C665.617 192.274 665.49 192.274 665.237 192.274C664.858 192.274 664.479 192.274 664.099 192.274C662.203 192.401 660.559 192.401 658.915 192.654C657.018 193.538 655.122 194.171 653.351 195.308C652.087 196.067 651.075 196.825 650.19 197.963C649.179 199.227 648.546 200.744 648.041 202.261C646.903 205.421 646.397 208.834 646.017 212.248C645.512 215.914 645.132 219.58 644.879 223.246C644.5 230.957 644.627 238.794 645.006 246.632Z" fill="#6059C9"/>
<path d="M682.308 147.777C678.767 148.535 676.744 152.201 677.25 155.488C677.756 158.775 680.158 161.682 682.813 163.958C684.204 159.913 685.09 156.373 686.48 152.454C686.986 150.937 687.366 148.915 685.848 148.03C685.216 147.398 683.319 147.524 682.308 147.777Z" fill="#2D201B"/>
<path d="M665.491 166.486C665.491 166.612 665.491 166.739 665.491 166.865C665.491 166.992 665.491 166.992 665.491 167.118V167.245C665.491 167.371 665.491 167.497 665.491 167.624V167.75C665.491 167.877 665.491 168.129 665.617 168.256C665.617 168.382 665.744 168.635 665.744 168.761C665.744 168.888 665.744 168.888 665.744 169.014V169.141C665.744 169.267 665.87 169.394 665.87 169.646C665.996 170.026 666.123 170.405 666.249 170.784C666.249 170.911 666.376 170.911 666.376 171.037C666.755 171.795 667.134 172.554 667.64 173.186C667.767 173.312 667.893 173.439 668.02 173.565C668.02 173.692 668.146 173.692 668.146 173.818C668.273 173.944 668.399 174.071 668.525 174.197C668.778 174.45 669.031 174.703 669.411 174.956C669.537 175.082 669.663 175.209 669.79 175.335C670.422 175.841 670.928 176.22 671.687 176.599C672.192 176.852 672.698 177.105 673.204 177.231C673.33 177.231 673.457 177.358 673.583 177.358C673.71 177.358 673.71 177.358 673.836 177.484H673.963H674.089C674.215 177.484 674.342 177.61 674.468 177.61C675.354 177.863 676.112 177.863 676.997 177.863C677.25 177.863 677.377 177.863 677.63 177.863C679.779 177.737 681.802 177.105 683.446 175.967C686.607 173.944 688.757 170.278 688.883 166.233V163.452L689.01 155.362V152.833V149.294C689.01 149.041 689.01 148.915 689.01 148.662C689.01 148.535 689.01 148.535 689.01 148.409C689.01 148.283 689.01 148.283 689.01 148.156C689.01 148.03 689.01 148.03 689.01 147.903V147.777V147.65V147.524C689.01 147.398 689.01 147.398 689.01 147.271C689.01 147.145 689.01 147.145 689.01 147.018V146.892C689.01 146.766 689.01 146.639 688.883 146.386C688.883 146.26 688.883 146.26 688.757 146.134C688.757 146.007 688.757 146.007 688.63 145.881C688.63 145.754 688.63 145.754 688.504 145.628C688.504 145.501 688.504 145.501 688.378 145.375C688.378 145.249 688.377 145.249 688.251 145.122C688.251 144.996 688.251 144.996 688.125 144.869C688.125 144.743 687.998 144.617 687.998 144.364C687.998 144.364 687.998 144.364 687.998 144.237C687.998 144.111 687.872 143.985 687.872 143.858C687.872 143.858 687.872 143.858 687.872 143.732C687.872 143.605 687.745 143.479 687.619 143.352C685.596 139.686 681.802 137.285 677.377 137.158C672.445 137.158 668.146 140.192 666.376 144.49C665.87 145.754 665.617 147.271 665.491 148.662L665.364 165.601C665.491 166.107 665.491 166.36 665.491 166.486Z" fill="#D67160"/>
<path d="M695.459 159.407C695.459 161.935 693.436 163.958 690.907 163.831C688.378 163.831 686.355 161.809 686.481 159.281C686.481 156.752 688.504 154.73 691.033 154.856C693.436 154.856 695.459 156.879 695.459 159.407Z" fill="#D67160"/>
<path d="M671.054 332.972L673.836 320.584C674.089 320.584 674.341 320.457 674.594 320.457C684.204 318.687 699.378 311.735 708.988 310.85L678.388 384.422C673.962 404.648 665.364 455.467 665.237 455.593C665.237 458.5 651.075 462.419 644.753 459.006C653.225 396.558 664.479 353.451 671.054 332.972Z" fill="#467B6C"/>
<path d="M653.225 297.45L680.79 310.471L698.493 366.977C705.827 386.319 725.173 431.322 725.173 431.322C722.897 434.229 716.954 443.584 709.873 444.721C683.066 388.72 654.236 327.031 653.225 297.45Z" fill="#467B6C"/>
<path d="M688.377 180.897C693.182 177.484 699.378 175.588 705.195 176.726C708.482 177.358 711.643 178.875 714.931 179.127C718.724 179.507 722.391 178.242 726.185 177.358C729.852 176.473 733.898 176.093 737.312 177.737C740.094 179.127 742.117 182.161 742.496 185.195C742.749 188.356 741.358 191.642 738.956 193.538C736.301 195.561 732.76 196.193 729.472 196.193C726.185 196.193 722.771 195.688 719.483 196.193C714.931 196.699 710.758 198.848 706.206 199.227C703.804 199.48 701.275 199.101 698.872 198.848C694.952 198.342 691.033 197.837 687.113 197.457C684.584 197.204 680.158 197.584 678.894 194.929C676.365 190.125 685.216 183.173 688.377 180.897Z" fill="#6059C9"/>
<path d="M675.732 183.805C675.732 183.678 675.606 183.678 675.226 183.678C674.847 183.678 674.468 183.678 674.088 183.552C673.33 183.552 672.571 183.552 671.812 183.678C669.283 183.931 666.881 184.942 665.111 186.712C663.467 188.356 662.582 190.757 662.708 193.033C662.835 194.297 663.214 195.688 663.973 196.699C665.364 198.469 667.64 199.227 669.916 199.354C671.433 199.48 673.203 199.354 674.468 198.469C675.985 197.457 676.617 195.561 676.491 193.791C676.364 191.769 675.479 189.873 675.226 187.976C675.1 186.586 675.226 185.322 675.606 183.931C675.732 183.931 675.732 183.931 675.732 183.805Z" fill="#6059C9"/>
<path d="M667.766 345.866L674.215 313.378L665.996 307.057" stroke="white" stroke-width="0.6125" stroke-miterlimit="10" stroke-linecap="round" stroke-linejoin="round"/>
<path d="M674.341 160.924L674.215 163.326H672.318L673.836 165.348" stroke="#472A1C" stroke-width="0.3825" stroke-miterlimit="10" stroke-linecap="round" stroke-linejoin="round"/>
<path d="M665.49 160.292C665.49 160.924 666.628 161.43 668.146 161.556C668.651 161.556 669.157 161.682 669.663 161.556C670.295 161.556 670.801 161.43 671.307 161.43C672.698 161.177 673.709 160.671 673.709 160.039C673.709 159.533 672.824 159.028 671.56 158.775C670.927 158.648 670.295 158.648 669.537 158.648C668.904 158.648 668.272 158.775 667.766 158.901C666.375 159.154 665.49 159.786 665.49 160.292Z" fill="white"/>
<path d="M667.387 160.039C667.387 160.671 667.64 161.177 668.145 161.556C668.651 161.556 669.157 161.682 669.663 161.556C670.295 161.556 670.801 161.429 671.307 161.429C671.686 161.05 671.939 160.545 671.939 160.039C671.939 159.533 671.812 159.154 671.559 158.901C670.927 158.775 670.295 158.775 669.536 158.775C668.904 158.775 668.272 158.901 667.766 159.028C667.513 159.28 667.387 159.66 667.387 160.039Z" fill="#362F36"/>
<path d="M675.732 160.039C675.732 160.671 676.87 161.177 678.388 161.303C678.894 161.303 679.399 161.303 679.905 161.303C680.537 161.303 681.043 161.177 681.549 161.177C682.94 160.924 683.952 160.418 683.952 159.786C683.952 159.281 683.066 158.775 681.802 158.522C681.17 158.396 680.537 158.396 679.779 158.396C679.146 158.396 678.514 158.522 678.008 158.648C676.744 158.901 675.732 159.407 675.732 160.039Z" fill="white"/>
<path d="M677.629 159.66C677.629 160.292 677.882 160.797 678.388 161.177C678.893 161.177 679.399 161.177 679.905 161.177C680.537 161.177 681.043 161.05 681.549 161.05C681.928 160.671 682.181 160.165 682.181 159.66C682.181 159.154 682.054 158.775 681.802 158.522C681.169 158.396 680.537 158.396 679.778 158.396C679.146 158.396 678.514 158.522 678.008 158.648C677.755 158.901 677.629 159.281 677.629 159.66Z" fill="#362F36"/>
<path d="M674.848 157.511L680.917 154.603" stroke="#332B33" stroke-width="1.2763" stroke-miterlimit="10" stroke-linecap="round" stroke-linejoin="round"/>
<path d="M671.939 156.626L665.869 153.845" stroke="#332B33" stroke-width="1.2763" stroke-miterlimit="10" stroke-linecap="round" stroke-linejoin="round"/>
<path d="M675.732 167.75C675.732 167.75 679.02 166.486 680.917 164.464" stroke="#472A1C" stroke-width="0.3825" stroke-miterlimit="10" stroke-linecap="round" stroke-linejoin="round"/>
<path d="M688.504 157.005C683.699 155.615 680.158 150.432 680.664 145.502C670.042 148.662 658.03 149.926 647.535 146.26C637.04 142.594 628.315 132.607 629.073 121.483C629.326 118.323 630.338 115.036 632.74 112.887C635.269 110.738 638.81 110.106 642.097 110.612C644.5 110.991 646.65 112.002 648.546 113.519C652.845 116.806 654.995 122.115 657.524 126.919C660.053 131.722 663.973 136.526 669.284 137.158C673.709 137.79 678.008 135.388 682.308 135.641C688.63 136.021 693.941 142.594 692.803 148.915C692.297 152.201 690.4 154.35 688.504 157.005Z" fill="#332B33"/>
<path d="M673.203 374.689C666.375 395.42 662.581 416.784 661.443 438.274" stroke="white" stroke-width="0.6125" stroke-miterlimit="10" stroke-linecap="round" stroke-linejoin="round"/>
<path d="M698.62 307.943C690.274 325.135 682.687 342.706 677.503 360.91" stroke="white" stroke-width="0.6125" stroke-miterlimit="10" stroke-linecap="round" stroke-linejoin="round"/>
<path d="M690.021 369.126L717.46 433.218" stroke="white" stroke-width="0.6125" stroke-miterlimit="10" stroke-linecap="round" stroke-linejoin="round"/>
<path d="M592.278 47.405L591.393 238.289" stroke="#467B6C" stroke-width="2.0069" stroke-miterlimit="10" stroke-linecap="round" stroke-linejoin="round"/>
<path d="M778.407 47.405L777.648 238.289" stroke="#467B6C" stroke-width="2.0069" stroke-miterlimit="10" stroke-linecap="round" stroke-linejoin="round"/>
<path d="M803.949 1.01135H561.298V90.6383H803.949V1.01135Z" fill="white"/>
<path d="M600.952 26.2H579.704V32.6H586.936V71H593.72V32.6H600.952V26.2ZM615.326 25.56C608.542 25.56 604.382 29.848 604.382 36.888V60.312C604.382 67.352 608.542 71.64 615.326 71.64C622.11 71.64 626.27 67.352 626.27 60.312V36.888C626.27 29.848 622.11 25.56 615.326 25.56ZM615.326 31.832C618.014 31.832 619.486 33.624 619.486 36.952V60.248C619.486 63.576 618.014 65.368 615.326 65.368C612.638 65.368 611.166 63.576 611.166 60.248V36.952C611.166 33.624 612.638 31.832 615.326 31.832ZM642.692 25.56C635.972 25.56 632.132 29.528 632.132 36.312V60.888C632.132 67.672 635.972 71.64 642.692 71.64C649.476 71.64 653.38 67.672 653.38 60.888V46.232H642.884V52.504H646.724V60.184C646.724 63.768 645.444 65.368 642.82 65.368C640.196 65.368 638.916 63.768 638.916 60.824V36.376C638.916 33.432 640.26 31.832 642.884 31.832C645.508 31.832 646.852 33.432 646.852 37.016V39.704L653.38 39.384V36.312C653.38 29.528 649.476 25.56 642.692 25.56ZM678.845 26.2H659.773V71H678.845V64.728H666.557V51.416H676.477V45.144H666.557V32.472H678.845V26.2ZM702.89 26.2H681.642V32.6H688.874V71H695.658V32.6H702.89V26.2ZM728.843 26.2H722.059V45.08H713.995V26.2H707.211V71H713.995V51.48H722.059V71H728.843V26.2ZM755.22 26.2H736.148V71H755.22V64.728H742.932V51.416H752.852V45.144H742.932V32.472H755.22V26.2ZM783.425 71L777.217 50.584C780.353 48.792 782.017 45.464 782.017 40.728V37.528C782.017 30.168 778.049 26.2 770.753 26.2H760.961V71H767.745V52.056H770.881L776.257 71H783.425ZM770.497 32.472C773.76 32.472 775.233 34.2 775.233 37.976V40.28C775.233 44.056 773.76 45.784 770.497 45.784H767.745V32.472H770.497Z" fill="#5D515D"/>
<path d="M658.029 236.266C658.029 236.266 673.709 268.881 699.125 272.547" stroke="#467B6C" stroke-width="1.2763" stroke-miterlimit="10" stroke-linecap="round" stroke-linejoin="round"/>
<path d="M788.523 297.45C790.897 297.45 792.822 295.526 792.822 293.152C792.822 290.778 790.897 288.854 788.523 288.854C786.148 288.854 784.224 290.778 784.224 293.152C784.224 295.526 786.148 297.45 788.523 297.45Z" fill="#D03F23"/>
<path d="M723.782 128.689C723.782 131.09 721.885 132.987 719.483 132.987C717.08 132.987 715.184 131.09 715.184 128.689C715.184 126.287 717.08 124.391 719.483 124.391C721.885 124.391 723.782 126.287 723.782 128.689Z" fill="#D03F23"/>
<path d="M843.654 284.05C846.307 284.05 848.459 281.9 848.459 279.247C848.459 276.594 846.307 274.443 843.654 274.443C841 274.443 838.849 276.594 838.849 279.247C838.849 281.9 841 284.05 843.654 284.05Z" fill="#D03F23"/>
<path d="M602.14 391.881C603.816 391.881 605.175 390.523 605.175 388.847C605.175 387.171 603.816 385.813 602.14 385.813C600.464 385.813 599.105 387.171 599.105 388.847C599.105 390.523 600.464 391.881 602.14 391.881Z" fill="#D03F23"/>
<path d="M746.163 464.442C748.538 464.442 750.463 462.517 750.463 460.144C750.463 457.77 748.538 455.846 746.163 455.846C743.789 455.846 741.864 457.77 741.864 460.144C741.864 462.517 743.789 464.442 746.163 464.442Z" fill="#D03F23"/>
<path d="M863 373.677C863 375.068 861.862 376.079 860.598 376.079C859.333 376.079 858.195 374.941 858.195 373.677C858.195 372.287 859.333 371.275 860.598 371.275C861.862 371.275 863 372.287 863 373.677Z" fill="#D03F23"/>
<path d="M829.618 132.86C832.621 132.86 835.055 130.427 835.055 127.424C835.055 124.422 832.621 121.989 829.618 121.989C826.615 121.989 824.181 124.422 824.181 127.424C824.181 130.427 826.615 132.86 829.618 132.86Z" fill="#D03F23"/>
<path d="M399.446 307.058C402.099 307.058 404.251 304.907 404.251 302.254C404.251 299.601 402.099 297.45 399.446 297.45C396.792 297.45 394.641 299.601 394.641 302.254C394.641 304.907 396.792 307.058 399.446 307.058Z" fill="#D03F23"/>
<path d="M329.773 367.609C331.449 367.609 332.808 366.251 332.808 364.576C332.808 362.9 331.449 361.542 329.773 361.542C328.097 361.542 326.738 362.9 326.738 364.576C326.738 366.251 328.097 367.609 329.773 367.609Z" fill="#D03F23"/>
<path d="M418.792 436.631C418.792 438.654 417.148 440.297 415.125 440.297C413.102 440.297 411.458 438.654 411.458 436.631C411.458 434.608 413.102 432.965 415.125 432.965C417.148 432.965 418.792 434.608 418.792 436.631Z" fill="#D03F23"/>
<path d="M532.594 119.587C535.248 119.587 537.399 117.436 537.399 114.783C537.399 112.13 535.248 109.979 532.594 109.979C529.94 109.979 527.789 112.13 527.789 114.783C527.789 117.436 529.94 119.587 532.594 119.587Z" fill="#D03F23"/>
<path d="M324.336 129.826C324.336 131.47 322.945 132.86 321.301 132.86C319.658 132.86 318.267 131.47 318.267 129.826C318.267 128.183 319.658 126.792 321.301 126.792C323.072 126.792 324.336 128.183 324.336 129.826Z" fill="#D03F23"/>
<path d="M367.328 452.812C367.328 450.41 365.431 448.514 363.029 448.514C360.626 448.514 358.729 450.41 358.729 452.812C358.729 455.214 360.626 457.11 363.029 457.11C365.431 457.11 367.328 455.214 367.328 452.812Z" fill="#6059C9"/>
<path d="M62.3386 363.943C65.3415 363.943 67.7758 361.51 67.7758 358.508C67.7758 355.506 65.3415 353.072 62.3386 353.072C59.3357 353.072 56.9014 355.506 56.9014 358.508C56.9014 361.51 59.3357 363.943 62.3386 363.943Z" fill="#D03F23"/>
<path d="M135.551 261.802C135.551 263.445 134.16 264.836 132.516 264.836C130.872 264.836 129.481 263.445 129.481 261.802C129.481 260.158 130.872 258.768 132.516 258.768C134.16 258.768 135.551 260.032 135.551 261.802Z" fill="#D03F23"/>
<path d="M13.9089 224.889C16.9118 224.889 19.3461 222.455 19.3461 219.453C19.3461 216.451 16.9118 214.017 13.9089 214.017C10.906 214.017 8.47168 216.451 8.47168 219.453C8.47168 222.455 10.906 224.889 13.9089 224.889Z" fill="#D03F23"/>
<path d="M74.9825 429.931C74.9825 431.574 73.5916 432.965 71.9478 432.965C70.304 432.965 68.9131 431.574 68.9131 429.931C68.9131 428.288 70.304 426.897 71.9478 426.897C73.7181 426.897 74.9825 428.288 74.9825 429.931Z" fill="#D03F23"/>
<path d="M55.6367 299.852C57.6619 299.852 59.3036 298.211 59.3036 296.186C59.3036 294.161 57.6619 292.52 55.6367 292.52C53.6115 292.52 51.9697 294.161 51.9697 296.186C51.9697 298.211 53.6115 299.852 55.6367 299.852Z" fill="#6059C9"/>
<path d="M114.94 170.405C114.94 172.428 113.297 174.071 111.273 174.071C109.25 174.071 107.606 172.428 107.606 170.405C107.606 168.382 109.25 166.739 111.273 166.739C113.297 166.739 114.94 168.382 114.94 170.405Z" fill="#6059C9"/>
<path d="M18.208 168.003C20.2332 168.003 21.8749 166.362 21.8749 164.337C21.8749 162.312 20.2332 160.671 18.208 160.671C16.1828 160.671 14.541 162.312 14.541 164.337C14.541 166.362 16.1828 168.003 18.208 168.003Z" fill="#6059C9"/>
<path d="M7.20747 402.752C7.20747 404.775 5.56366 406.418 3.54051 406.418C1.51736 406.418 0 404.775 0 402.752C0 400.73 1.64381 399.086 3.66696 399.086C5.69011 399.086 7.20747 400.73 7.20747 402.752Z" fill="#6059C9"/>
<path d="M208.131 256.239C208.131 257.63 206.993 258.641 205.729 258.641C204.338 258.641 203.326 257.504 203.326 256.239C203.326 254.849 204.464 253.838 205.729 253.838C207.12 253.838 208.131 254.975 208.131 256.239Z" fill="#6059C9"/>
<path d="M383.008 370.011C386.01 370.011 388.445 367.578 388.445 364.576C388.445 361.573 386.01 359.14 383.008 359.14C380.005 359.14 377.57 361.573 377.57 364.576C377.57 367.578 380.005 370.011 383.008 370.011Z" fill="#6059C9"/>
<path d="M344.315 424.495C346.689 424.495 348.614 422.571 348.614 420.197C348.614 417.824 346.689 415.899 344.315 415.899C341.94 415.899 340.016 417.824 340.016 420.197C340.016 422.571 341.94 424.495 344.315 424.495Z" fill="#6059C9"/>
<path d="M445.346 290.118C445.346 290.75 445.851 291.382 446.61 291.382C447.369 291.382 447.875 290.877 447.875 290.118C447.875 289.486 447.369 288.854 446.61 288.854C445.851 288.854 445.346 289.486 445.346 290.118Z" fill="#6059C9"/>
<path d="M363.156 284.682C363.156 285.694 362.397 286.452 361.385 286.452C360.374 286.452 359.615 285.694 359.615 284.682C359.615 283.671 360.374 282.913 361.385 282.913C362.271 282.913 363.156 283.671 363.156 284.682Z" fill="#6059C9"/>
<path d="M318.267 179.507C318.267 180.518 317.508 181.276 316.497 181.276C315.485 181.276 314.727 180.518 314.727 179.507C314.727 178.495 315.485 177.737 316.497 177.737C317.508 177.611 318.267 178.495 318.267 179.507Z" fill="#6059C9"/>
<path d="M380.099 117.817C380.099 120.219 378.203 122.115 375.8 122.115C373.398 122.115 371.501 120.219 371.501 117.817C371.501 115.415 373.398 113.519 375.8 113.519C378.203 113.519 380.099 115.415 380.099 117.817Z" fill="#6059C9"/>
<path d="M295.38 108.083C295.38 109.727 293.989 111.117 292.345 111.117C290.701 111.117 289.311 109.727 289.311 108.083C289.311 106.44 290.701 105.049 292.345 105.049C293.989 105.049 295.38 106.44 295.38 108.083Z" fill="#6059C9"/>
<path d="M572.425 121.989C572.425 122.621 571.92 123.253 571.161 123.253C570.529 123.253 569.896 122.747 569.896 121.989C569.896 121.357 570.402 120.724 571.161 120.724C571.92 120.724 572.425 121.357 572.425 121.989Z" fill="#6059C9"/>
<path d="M457.485 108.083C457.485 109.727 456.094 111.117 454.45 111.117C452.806 111.117 451.415 109.727 451.415 108.083C451.415 106.44 452.806 105.049 454.45 105.049C456.094 105.049 457.485 106.44 457.485 108.083Z" fill="#6059C9"/>
<path d="M697.102 117.059C699.756 117.059 701.907 114.908 701.907 112.255C701.907 109.602 699.756 107.451 697.102 107.451C694.448 107.451 692.297 109.602 692.297 112.255C692.297 114.908 694.448 117.059 697.102 117.059Z" fill="#6059C9"/>
<path d="M637.798 168.003C637.798 169.394 636.66 170.405 635.396 170.405C634.005 170.405 632.993 169.267 632.993 168.003C632.993 166.612 634.131 165.601 635.396 165.601C636.787 165.601 637.798 166.612 637.798 168.003Z" fill="#6059C9"/>
<path d="M606.313 290.118C606.313 291.509 605.175 292.52 603.91 292.52C602.519 292.52 601.508 291.382 601.508 290.118C601.508 288.728 602.646 287.716 603.91 287.716C605.301 287.716 606.313 288.854 606.313 290.118Z" fill="#6059C9"/>
<path d="M751.6 267.111C754.254 267.111 756.405 264.96 756.405 262.307C756.405 259.654 754.254 257.504 751.6 257.504C748.946 257.504 746.795 259.654 746.795 262.307C746.795 264.96 748.946 267.111 751.6 267.111Z" fill="#6059C9"/>
<path d="M818.238 236.898C818.238 238.289 817.1 239.3 815.835 239.3C814.571 239.3 813.433 238.162 813.433 236.898C813.433 235.508 814.571 234.496 815.835 234.496C817.1 234.496 818.238 235.634 818.238 236.898Z" fill="#6059C9"/>
<path d="M739.461 327.663C739.461 329.053 738.323 330.065 737.059 330.065C735.668 330.065 734.656 328.927 734.656 327.663C734.656 326.272 735.794 325.261 737.059 325.261C738.45 325.261 739.461 326.399 739.461 327.663Z" fill="#6059C9"/>
<path d="M846.056 426.897C846.056 427.529 845.55 428.161 844.792 428.161C844.16 428.161 843.527 427.656 843.527 426.897C843.527 426.265 844.033 425.633 844.792 425.633C845.424 425.759 846.056 426.265 846.056 426.897Z" fill="#6059C9"/>
<path d="M779.419 397.316C779.419 398.96 778.028 400.35 776.384 400.35C774.741 400.35 773.35 398.96 773.35 397.316C773.35 395.673 774.741 394.283 776.384 394.283C778.028 394.283 779.419 395.547 779.419 397.316Z" fill="#6059C9"/>
<path d="M169.186 490.104C340.774 490.104 512.868 490.104 684.33 490.104" stroke="#467B6C" stroke-width="3" stroke-miterlimit="10" stroke-linecap="round" stroke-linejoin="round"/>
</g>
<defs>
<clipPath id="clip0_174_2660">
<rect width="863" height="492" fill="white"/>
</clipPath>
</defs>
</svg>
