<svg width="563" height="416" viewBox="0 0 563 416" fill="none" xmlns="http://www.w3.org/2000/svg">
<g clip-path="url(#clip0_219_2532)">
<path d="M62.0781 108.186H499.257" stroke="#DED8D5" stroke-width="1.9678" stroke-miterlimit="10"/>
<path d="M493.566 350.334H67.7694C64.6173 350.334 62.0781 347.792 62.0781 344.635V85.2162C62.0781 82.06 64.6173 79.5176 67.7694 79.5176H493.566C496.718 79.5176 499.257 82.06 499.257 85.2162V344.635C499.257 347.792 496.718 350.334 493.566 350.334Z" stroke="#DED8D5" stroke-width="1.9678" stroke-miterlimit="10"/>
<path d="M90.8855 94.071C90.8855 96.2627 89.1343 98.1038 86.8578 98.1038C84.6688 98.1038 82.8301 96.3504 82.8301 94.071C82.8301 91.7915 84.5812 90.0381 86.8578 90.0381C89.0467 90.1258 90.8855 91.8792 90.8855 94.071Z" fill="#6059C9"/>
<path d="M106.383 94.071C106.383 96.2627 104.632 98.1038 102.356 98.1038C100.167 98.1038 98.3281 96.3504 98.3281 94.071C98.3281 91.7915 100.079 90.0381 102.356 90.0381C104.632 90.1258 106.383 91.8792 106.383 94.071Z" fill="#EAD254"/>
<path d="M121.969 94.071C121.969 96.2627 120.218 98.1038 117.942 98.1038C115.665 98.1038 113.914 96.3504 113.914 94.071C113.914 91.7915 115.665 90.0381 117.942 90.0381C120.218 90.0381 121.969 91.8792 121.969 94.071Z" fill="#D03F23"/>
<path d="M556.082 204.8H453.289C450.399 204.8 448.035 202.432 448.035 199.539V104.416C448.035 101.523 450.399 99.1558 453.289 99.1558H556.082C558.971 99.1558 561.336 101.523 561.336 104.416V199.539C561.336 202.432 558.971 204.8 556.082 204.8Z" fill="#EDEDED"/>
<path d="M556.082 204.8H453.289C450.399 204.8 448.035 202.432 448.035 199.539V104.416C448.035 101.523 450.399 99.1558 453.289 99.1558H556.082C558.971 99.1558 561.336 101.523 561.336 104.416V199.539C561.336 202.432 558.971 204.8 556.082 204.8Z" stroke="#DED8D5" stroke-width="1.9678" stroke-miterlimit="10"/>
<path d="M478.156 177.359H531.566C534.456 177.359 536.82 174.991 536.82 172.098V128.263C536.82 125.37 534.456 123.002 531.566 123.002H478.156C475.266 123.002 472.902 125.37 472.902 128.263V172.098C472.902 174.991 475.266 177.359 478.156 177.359Z" fill="#6059C9"/>
<path d="M519.484 159.211H494.442H489.977V139.397H519.484V144.307V159.211Z" stroke="white" stroke-width="1.6466" stroke-miterlimit="10" stroke-linecap="round" stroke-linejoin="round"/>
<path d="M489.977 139.397L504.686 151.057L519.484 139.397" stroke="white" stroke-width="1.6466" stroke-miterlimit="10" stroke-linecap="round" stroke-linejoin="round"/>
<path d="M103.844 284.493H5.86582C3.06396 284.493 0.875 282.213 0.875 279.496V193.928C0.875 191.123 3.15152 188.931 5.86582 188.931H103.844C106.645 188.931 108.834 191.211 108.834 193.928V279.496C108.834 282.301 106.645 284.493 103.844 284.493Z" fill="#EDEDED"/>
<path d="M103.844 284.493H5.86582C3.06396 284.493 0.875 282.213 0.875 279.496V193.928C0.875 191.123 3.15152 188.931 5.86582 188.931H103.844C106.645 188.931 108.834 191.211 108.834 193.928V279.496C108.834 282.301 106.645 284.493 103.844 284.493Z" stroke="#DED8D5" stroke-width="1.9678" stroke-miterlimit="10"/>
<path d="M80.0275 266.082H29.2437C26.004 266.082 23.4648 263.452 23.4648 260.296V211.112C23.4648 207.868 26.0916 205.326 29.2437 205.326H80.0275C83.2672 205.326 85.8064 207.956 85.8064 211.112V260.296C85.8064 263.452 83.2672 266.082 80.0275 266.082Z" fill="#6059C9"/>
<path d="M42.4659 223.737C35.6364 230.575 35.6364 241.885 42.4659 248.723C49.2955 255.561 60.5905 255.561 67.42 248.723C74.2496 241.885 74.2496 230.575 67.42 223.737C60.5905 216.898 49.383 216.898 42.4659 223.737ZM67.42 226.279H61.8163C61.2909 224.526 60.5029 222.772 59.6273 220.931C62.7794 221.983 65.4937 223.824 67.42 226.279ZM48.5074 235.222C48.5074 232.942 48.7701 230.663 49.383 228.383H60.678C61.2034 230.663 61.5536 232.942 61.5536 235.222H48.5074ZM61.3785 237.326C61.2034 239.605 60.8532 241.885 60.1527 244.164H49.8208C49.2079 241.885 48.7701 239.605 48.595 237.326H61.3785ZM54.9867 220.318C55.8623 220.318 56.6504 220.405 57.4384 220.493C58.4891 222.422 59.3647 224.35 59.9776 226.279H49.9084C50.5213 224.35 51.3969 222.422 52.4476 220.493C53.3231 220.405 54.1112 220.318 54.9867 220.318ZM50.3462 221.019C49.4706 222.772 48.6826 224.526 48.1572 226.367H42.5535C44.5673 223.824 47.2816 221.983 50.3462 221.019ZM41.1525 228.383H47.6319C47.1065 230.663 46.7563 232.942 46.7563 235.222H39.1387C39.2263 232.767 40.0143 230.4 41.1525 228.383ZM41.1525 244.164C40.0143 242.148 39.2263 239.781 39.1387 237.326H46.7563C46.8438 239.605 47.1941 241.885 47.807 244.164H41.1525ZM42.5535 246.268H48.4199C49.0328 248.022 49.7333 249.863 50.6088 251.616C47.3692 250.652 44.5673 248.811 42.5535 246.268ZM54.9867 252.23C54.2863 252.23 53.5858 252.142 52.8854 252.055C51.9222 250.126 51.0466 248.109 50.4337 246.181H59.5398C58.8393 248.109 58.0513 250.126 57.0881 252.055C56.3877 252.142 55.6872 252.23 54.9867 252.23ZM59.3647 251.616C60.2403 249.863 60.9407 248.022 61.5536 246.268H67.42C65.4062 248.811 62.6043 250.652 59.3647 251.616ZM68.821 244.164H62.1665C62.7794 241.885 63.1297 239.605 63.2172 237.326H70.9224C70.7472 239.781 70.0468 242.148 68.821 244.164ZM70.9224 235.222H63.3048C63.3048 232.942 62.9546 230.663 62.4292 228.383H68.9085C70.0468 230.4 70.7472 232.767 70.9224 235.222Z" fill="white"/>
<path d="M98.0645 54.4438H9.28034C7.44162 54.4438 5.95312 52.9534 5.95312 51.1123C5.95312 49.2712 7.44162 47.7808 9.28034 47.7808H98.0645C99.9032 47.7808 101.392 49.2712 101.392 51.1123C101.304 52.9534 99.8157 54.4438 98.0645 54.4438Z" fill="#6059C9"/>
<path d="M559.672 271.605H516.593C514.754 271.605 513.266 270.115 513.266 268.274C513.266 266.433 514.754 264.942 516.593 264.942H559.672C561.51 264.942 562.999 266.433 562.999 268.274C562.999 270.115 561.51 271.605 559.672 271.605Z" fill="#396C61"/>
<path d="M529.552 310.093H524.299C522.898 310.093 521.76 308.953 521.76 307.551V302.641C521.76 301.238 522.898 300.099 524.299 300.099H529.552C530.953 300.099 532.092 301.238 532.092 302.641V307.551C532.004 308.953 530.866 310.093 529.552 310.093Z" fill="#6059C9"/>
<path d="M30.3825 333.151H25.129C23.7281 333.151 22.5898 332.011 22.5898 330.608V325.699C22.5898 324.296 23.7281 323.156 25.129 323.156H30.3825C31.7835 323.156 32.9217 324.296 32.9217 325.699V330.608C32.9217 332.011 31.7835 333.151 30.3825 333.151Z" fill="#6059C9"/>
<path d="M433.413 51.0246H345.767C344.279 51.0246 343.141 49.8849 343.141 48.3945V27.0027C343.141 25.5123 344.279 24.3726 345.767 24.3726H433.413C434.902 24.3726 436.04 25.5123 436.04 27.0027V48.3945C436.04 49.8849 434.814 51.0246 433.413 51.0246Z" fill="#6059C9"/>
<path d="M355.75 33.8408H418.092" stroke="white" stroke-width="1.1803" stroke-miterlimit="10"/>
<path d="M355.75 40.2407H381.142" stroke="white" stroke-width="1.1803" stroke-miterlimit="10"/>
<path d="M353.209 48.0439V58.3891L366.343 48.0439H353.209Z" fill="#6059C9"/>
<path d="M218.108 52.6027H175.73C171.614 52.6027 168.287 49.2712 168.287 45.1507V5.69863C168.287 2.54247 170.826 0 173.978 0H218.195C221.347 0 223.887 2.54247 223.887 5.69863V46.9918C223.712 50.0603 221.26 52.6027 218.108 52.6027Z" fill="#396C61"/>
<path d="M208.915 30.159L205.763 27.0028C205.238 26.3891 204.45 26.0385 203.749 26.0385C203.049 26.0385 202.261 26.3891 201.735 26.9152L199.896 28.7563C199.809 28.6686 199.634 28.6686 199.546 28.5809C199.284 28.4933 199.108 28.4056 199.021 28.3179C197.357 27.2659 195.781 25.8631 194.293 24.022C193.592 23.1453 193.067 22.3563 192.804 21.7426C193.242 21.3042 193.68 20.8659 194.03 20.5152C194.205 20.3398 194.38 20.1645 194.555 19.9891C195.168 19.3754 195.519 18.6741 195.519 17.885C195.519 17.1837 195.168 16.3946 194.555 15.7809L192.979 14.2028C192.804 14.0275 192.629 13.8522 192.454 13.6768C192.104 13.3261 191.754 12.9754 191.403 12.6248C190.878 12.0987 190.09 11.748 189.389 11.748C188.689 11.748 187.989 12.0111 187.376 12.6248L185.362 14.6412C184.661 15.3426 184.136 16.307 184.048 17.4467C183.961 19.1124 184.399 20.6905 184.749 21.7426C185.624 24.3727 187.025 26.6522 189.127 29.107C191.666 32.0878 194.643 34.4549 198.145 36.2083C199.459 36.822 201.21 37.5234 203.224 37.6987C203.311 37.6987 203.486 37.6987 203.661 37.6987C204.975 37.6987 206.113 37.1727 207.076 36.2083C207.076 36.2083 207.076 36.2083 207.164 36.1207C207.426 35.77 207.777 35.4193 208.215 35.0686C208.477 34.8056 208.74 34.5426 208.915 34.3672C210.141 33.0522 210.141 31.3864 208.915 30.159ZM207.689 33.1398C207.426 33.4028 207.251 33.5782 206.989 33.8412C206.551 34.1919 206.288 34.5426 205.85 34.9809C205.325 35.507 204.625 35.8576 203.837 35.8576C203.749 35.8576 203.661 35.8576 203.574 35.8576C201.91 35.77 200.334 35.0686 199.196 34.5426C195.956 32.9645 193.154 30.7727 190.79 27.9672C188.864 25.6878 187.551 23.4083 186.675 21.1289C186.15 19.8138 185.887 18.6741 185.975 17.622C186.062 17.0083 186.237 16.3946 186.763 15.9563L188.689 14.0275C188.864 13.8522 189.127 13.5891 189.477 13.5891C189.827 13.5891 190.002 13.7645 190.265 14.0275C190.615 14.3782 190.966 14.7289 191.316 15.0796C191.491 15.2549 191.666 15.5179 191.841 15.6056L193.417 17.1837C193.592 17.359 193.855 17.7097 193.855 17.9727C193.855 18.3234 193.592 18.5864 193.417 18.7617C193.242 18.9371 193.067 19.1124 192.892 19.2878C192.366 19.8138 191.929 20.2522 191.491 20.6905C191.491 20.6905 191.491 20.6905 191.403 20.7782C190.878 21.3042 190.966 21.8302 191.053 22.1809V22.2686C191.491 23.3207 192.104 24.1974 192.892 25.3371C194.468 27.3535 196.131 28.8439 198.058 30.0713C198.32 30.2467 198.583 30.3343 198.758 30.5097C199.021 30.5974 199.196 30.685 199.284 30.7727L199.371 30.8604C199.896 31.1234 200.509 31.0357 200.947 30.5974L202.961 28.5809C203.136 28.4056 203.399 28.1426 203.749 28.1426C204.012 28.1426 204.274 28.4056 204.45 28.5809L207.602 31.7371C208.127 32.0001 208.127 32.6138 207.689 33.1398Z" fill="white"/>
<path d="M402.601 252.226L370.593 248L370.856 251.105L343.497 254.727C343.497 254.727 325.871 298.276 341.392 394H363.666L371.646 296.983H374.452L382.168 394H404.53C420.139 298.276 402.601 252.226 402.601 252.226Z" fill="#8E716C"/>
<path d="M362 297H385.203" stroke="#282828" stroke-width="1.2333" stroke-miterlimit="10" stroke-linecap="round" stroke-linejoin="round"/>
<path d="M421.329 205.966C418.615 201.583 403.205 201.758 402.417 201.67C398.302 201.144 405.044 234.284 413.712 263.215C415.375 268.739 421.417 271.632 426.758 269.352C426.846 269.352 426.846 269.265 426.933 269.265C431.136 267.511 433.5 263.04 432.712 258.481C428.597 236.739 424.482 211.051 421.329 205.966Z" fill="#FFB1A5"/>
<path d="M424.919 217.977L405.306 225.605L403.467 216.224L423.78 211.227L424.919 217.977Z" fill="#F3978E"/>
<path d="M428.685 236.563C428.685 236.563 419.403 249.013 419.841 248.487C420.279 247.873 427.109 228.322 427.109 228.322L428.685 236.563Z" fill="#F3978E"/>
<path d="M441.905 219.818L415.288 254.361C411.785 258.92 412.923 265.495 417.739 268.564C422.555 271.72 428.947 270.054 431.661 264.969L453.813 224.027L441.905 219.818Z" fill="#FFB1A5"/>
<path d="M448.823 228.673C443.044 226.832 439.892 220.607 441.731 214.821C443.57 209.034 449.786 205.878 455.565 207.719C461.344 209.561 464.496 215.785 462.657 221.571C460.819 227.358 454.602 230.514 448.823 228.673Z" fill="#FFB1A5"/>
<path d="M460.205 211.577C460.205 211.577 463.182 208.421 457.841 206.229C452.5 204.037 445.933 204.563 441.73 214.733L460.205 211.577Z" fill="#FFB1A5"/>
<path d="M465.721 189.747L476.841 194.569C477.454 194.832 477.717 195.533 477.367 196.235L462.657 223.676C462.307 224.29 461.519 224.64 460.906 224.377L449.786 219.555C449.173 219.292 448.91 218.591 449.26 217.89L463.97 190.448C464.32 189.835 465.108 189.484 465.721 189.747Z" fill="#372F5F"/>
<path d="M464.671 189.309L475.791 194.13C476.403 194.393 476.666 195.095 476.316 195.796L461.606 223.237C461.256 223.851 460.468 224.202 459.855 223.939L448.735 219.117C448.122 218.854 447.859 218.152 448.21 217.451L462.919 190.01C463.27 189.309 464.058 189.046 464.671 189.309Z" fill="#261B43"/>
<path d="M463.445 192.114L473.251 196.322L461.256 218.679L451.449 214.47L463.445 192.114Z" fill="#E6E6E6"/>
<path d="M473.251 196.322L451.449 214.47L463.445 192.114L473.251 196.322Z" fill="white"/>
<path d="M454.689 205.353C454.689 205.353 457.14 205.879 459.417 207.106C460.38 207.632 460.905 208.772 460.643 209.911C460.38 210.876 459.592 211.665 458.541 211.753L452.762 212.454C452.762 212.454 449.698 217.714 445.758 218.24L449.348 209.035L454.689 205.353Z" fill="#FFB1A5"/>
<path d="M380.703 162.481C380.09 162.481 421.768 168.267 428.685 215.96L407.058 219.292L402.68 255.237H342.265L330.27 188.782C330.27 188.782 343.666 169.582 368.533 162.481H380.703Z" fill="#396C61"/>
<path d="M406.971 219.292L408.897 198.426" stroke="#282828" stroke-width="1.2333" stroke-miterlimit="10" stroke-linecap="round" stroke-linejoin="round"/>
<path d="M384.643 163.183V146.613H365.293V163.358C364.33 163.621 362.666 164.235 360.127 165.462L375.275 174.492L390.685 165.462C390.597 165.462 388.146 164.059 384.643 163.183Z" fill="#FFB1A5"/>
<path d="M365.117 148.629C365.117 148.629 368.62 157.922 377.901 157.046C386.394 156.344 385.08 143.457 385.08 143.457L365.117 148.629Z" fill="#282828"/>
<path d="M356.625 136.355C353.56 139.073 346.818 128.64 349.708 125.747C352.685 122.854 354.874 127.413 354.874 127.413L356.187 130.569L357.15 134.777L357.413 135.917L356.625 136.355Z" fill="#F3978E"/>
<path d="M351.109 129.429C351.109 129.429 353.386 128.377 355.487 131.709" stroke="#282828" stroke-width="0.9928" stroke-miterlimit="10" stroke-linecap="round" stroke-linejoin="round"/>
<path d="M392.525 136.004C395.327 138.985 402.944 129.166 400.317 126.01C397.603 122.854 395.064 127.237 395.064 127.237L393.488 130.218L392.174 134.339L391.824 135.391L392.525 136.004Z" fill="#F3978E"/>
<path d="M398.567 129.604C398.567 129.604 396.378 128.377 394.014 131.533" stroke="#282828" stroke-width="0.9928" stroke-miterlimit="10" stroke-linecap="round" stroke-linejoin="round"/>
<path d="M351.283 115.752C351.283 129.604 361.79 136.18 374.836 136.18C387.883 136.18 398.39 129.604 398.39 115.752C398.39 101.9 387.883 92.5195 374.836 92.5195C361.79 92.5195 351.283 101.9 351.283 115.752Z" fill="#282828"/>
<path d="M354.523 116.717C354.523 125.221 355.749 132.585 356.887 137.758C358.025 142.843 361.352 146.437 365.993 149.243L366.869 149.769C371.772 152.837 378.164 152.837 383.154 149.944C388.233 146.963 391.735 143.106 392.873 137.67C394.887 127.763 395.062 116.717 395.062 116.717C395.062 116.717 396.989 95.2372 375.099 95.6756C353.21 96.0262 354.523 116.717 354.523 116.717Z" fill="#FFB1A5"/>
<path d="M373.438 128.903V131.884C373.438 132.059 373.438 132.234 373.525 132.41C373.788 133.023 374.488 133.286 375.101 133.111L376.502 132.76" stroke="#282828" stroke-width="1.2316" stroke-miterlimit="10" stroke-linecap="round" stroke-linejoin="round"/>
<path d="M369.933 117.418L359.076 119.96C359.076 119.96 359.602 117.155 363.979 116.19C368.532 115.226 369.933 117.418 369.933 117.418Z" fill="#282828"/>
<path d="M379.652 117.418L390.159 119.96C390.159 119.96 389.722 117.155 385.431 116.19C381.053 115.226 379.652 117.418 379.652 117.418Z" fill="#282828"/>
<path d="M365.819 127.237C366.835 127.237 367.658 126.413 367.658 125.396C367.658 124.379 366.835 123.555 365.819 123.555C364.804 123.555 363.98 124.379 363.98 125.396C363.98 126.413 364.804 127.237 365.819 127.237Z" fill="#282828"/>
<path d="M385.082 125.396C385.082 126.448 384.294 127.237 383.243 127.237C382.192 127.237 381.404 126.448 381.404 125.396C381.404 124.344 382.192 123.555 383.243 123.555C384.206 123.555 385.082 124.432 385.082 125.396Z" fill="#282828"/>
<path d="M367.658 136.618H381.755C381.843 136.618 375.538 144.246 367.658 136.618Z" fill="white"/>
<path d="M370.591 131.595C373.634 128.548 373.634 123.607 370.591 120.56C367.548 117.513 362.614 117.513 359.571 120.56C356.528 123.607 356.528 128.548 359.571 131.595C362.614 134.642 367.548 134.642 370.591 131.595Z" stroke="#6059C9" stroke-width="1.3423" stroke-miterlimit="10"/>
<path d="M389.699 131.642C392.742 128.595 392.742 123.654 389.699 120.607C386.655 117.56 381.721 117.56 378.678 120.607C375.635 123.654 375.635 128.595 378.678 131.642C381.721 134.689 386.655 134.689 389.699 131.642Z" stroke="#6059C9" stroke-width="1.3423" stroke-miterlimit="10"/>
<path d="M372.912 126.098C372.912 126.098 374.751 124.344 376.502 126.098" stroke="#6059C9" stroke-width="1.3423" stroke-miterlimit="10"/>
<path d="M357.239 126.098H354.787" stroke="#6059C9" stroke-width="1.3423" stroke-miterlimit="10"/>
<path d="M392 126.098H394.539" stroke="#6059C9" stroke-width="1.3423" stroke-miterlimit="10"/>
<path d="M394.801 123.818C394.801 123.818 386.045 111.983 388.059 99.9717C388.059 99.9717 394.538 103.216 396.202 111.72C397.953 120.136 394.801 123.818 394.801 123.818Z" fill="#282828"/>
<path d="M354.524 124.607C354.524 124.607 364.681 111.194 362.667 99.1826C362.667 99.1826 355.663 103.215 353.912 111.72C352.16 120.136 354.524 124.607 354.524 124.607Z" fill="#282828"/>
<path d="M394.013 104.706C394.013 104.706 382.805 116.98 352.072 114.876C352.072 114.876 356.8 96.8154 371.685 94.8866C371.685 94.8866 388.847 92.8701 394.013 104.706Z" fill="#282828"/>
<path d="M407.819 92.7036C409.114 84.6733 403.663 77.1123 395.643 75.8156C387.623 74.519 380.071 79.9777 378.776 88.0081C377.481 96.0384 382.933 103.599 390.953 104.896C398.973 106.193 406.524 100.734 407.819 92.7036Z" fill="#282828"/>
<path d="M214.167 252.607L186.849 248.925L187.111 245.769L155.153 250.065C155.153 250.065 137.729 296.881 153.226 394.196H175.466L183.171 295.566H185.973L193.941 394.196H216.268C231.766 296.881 214.167 252.607 214.167 252.607Z" fill="#282828"/>
<path d="M211.978 119.523C208.301 115.139 205.324 110.054 202.785 102.953C200.07 95.3253 191.227 98.3938 191.227 98.3938C191.227 98.3938 183.872 88.9253 172.752 92.1691C161.632 95.5006 157.78 103.391 157.605 112.772C157.342 122.153 149.987 123.643 144.296 134.514C134.226 153.714 151.125 169.846 181.946 165.375V165.112C185.01 166.076 188.688 166.427 193.241 166.164C230.19 163.972 226.601 136.794 211.978 119.523Z" fill="#282828"/>
<path d="M199.895 133.725C202.96 136.443 209.702 126.01 206.813 123.117C203.923 120.224 201.647 124.783 201.647 124.783L200.333 127.939L199.37 132.147L199.107 133.287L199.895 133.725Z" fill="#F3978E"/>
<path d="M205.323 126.799C205.323 126.799 203.047 125.747 200.945 129.079" stroke="#282828" stroke-width="0.9928" stroke-miterlimit="10" stroke-linecap="round" stroke-linejoin="round"/>
<path d="M163.997 133.462C161.195 136.443 153.578 126.624 156.205 123.468C158.919 120.312 161.458 124.695 161.458 124.695L163.034 127.676L164.347 131.797L164.698 132.849L163.997 133.462Z" fill="#F3978E"/>
<path d="M157.955 126.975C157.955 126.975 160.144 125.747 162.508 128.903" stroke="#282828" stroke-width="0.9928" stroke-miterlimit="10" stroke-linecap="round" stroke-linejoin="round"/>
<path d="M205.237 113.123C205.237 126.975 194.73 133.55 181.684 133.55C168.638 133.55 158.131 126.975 158.131 113.123C158.131 99.2705 168.638 89.8896 181.684 89.8896C194.73 89.8896 205.237 99.2705 205.237 113.123Z" fill="#282828"/>
<path d="M191.227 144.07H171.877V169.232H191.227V144.07Z" fill="#FFB1A5"/>
<path d="M169.074 142.492C169.074 142.492 174.503 153.276 181.07 154.942C182.821 155.38 184.747 155.205 186.411 154.591C188.95 153.714 192.102 149.944 192.627 145.824L192.89 143.457C192.89 143.544 181.07 149.944 169.074 142.492Z" fill="#282828"/>
<path d="M201.997 114.087C201.997 122.591 200.771 129.955 199.633 135.128C198.494 140.213 195.167 143.807 190.527 146.613L189.651 147.139C184.748 150.207 178.356 150.207 173.365 147.314C168.287 144.333 164.784 140.476 163.646 135.04C161.632 125.133 161.457 114.087 161.457 114.087C161.457 114.087 159.531 92.6073 181.421 93.0457C203.31 93.484 201.997 114.087 201.997 114.087Z" fill="#FFB1A5"/>
<path d="M180.195 127.5V129.254C180.195 129.429 180.195 129.605 180.283 129.78C180.546 130.394 181.246 130.657 181.859 130.481L183.26 130.131" stroke="#282828" stroke-width="1.2298" stroke-miterlimit="10" stroke-linecap="round" stroke-linejoin="round"/>
<path d="M184.748 115.84L196.393 118.558C196.393 118.558 195.868 115.577 191.14 114.437C186.412 113.298 184.748 115.84 184.748 115.84Z" fill="#282828"/>
<path d="M178.619 115.84L166.799 118.558C166.799 118.558 167.324 115.577 172.14 114.438C177.043 113.473 178.619 115.84 178.619 115.84Z" fill="#282828"/>
<path d="M174.416 123.117C174.416 124.081 173.628 124.958 172.577 124.958C171.526 124.958 170.738 124.169 170.738 123.117C170.738 122.153 171.526 121.276 172.577 121.276C173.628 121.276 174.416 122.065 174.416 123.117Z" fill="#282828"/>
<path d="M191.84 123.117C191.84 124.081 191.052 124.958 190.001 124.958C188.95 124.958 188.162 124.169 188.162 123.117C188.162 122.153 188.95 121.276 190.001 121.276C190.964 121.276 191.84 122.065 191.84 123.117Z" fill="#282828"/>
<path d="M173.191 133.55H189.302C189.302 133.55 188.164 137.933 180.897 137.933C175.293 137.933 173.191 133.55 173.191 133.55Z" fill="white"/>
<path d="M161.72 121.188C161.72 121.188 170.475 109.353 168.462 97.3418C168.462 97.3418 161.982 100.586 160.319 109.09C158.568 117.506 161.72 121.188 161.72 121.188Z" fill="#282828"/>
<path d="M201.997 120.838C201.997 120.838 191.84 108.564 193.854 96.5527C193.854 96.5527 200.859 100.586 202.61 109.09C204.274 117.506 201.997 120.838 201.997 120.838Z" fill="#282828"/>
<path d="M162.508 102.076C162.508 102.076 172.577 115.577 203.31 113.473C203.31 113.473 199.808 94.1855 184.923 92.2567C184.835 92.3444 167.674 90.2403 162.508 102.076Z" fill="#282828"/>
<path d="M134.488 312.049C134.05 312.75 160.055 198.69 152.35 200.443C151.649 200.619 138.078 201.846 136.064 205.967C130.197 217.802 126.082 311.172 126.082 311.172L134.488 312.049Z" fill="#FFB1A5"/>
<path d="M126.083 311.172C126.083 311.172 121.88 330.635 137.728 332.827C138.779 333.002 139.742 332.388 140.092 331.336L140.18 331.161C140.53 330.021 140.005 328.882 138.954 328.443C136.327 327.304 132.387 324.323 134.313 317.747C134.313 317.747 136.59 317.484 137.903 321.78C138.254 322.92 139.479 323.446 140.53 322.92C141.231 322.569 141.581 321.78 141.493 321.079C141.143 318.098 139.567 310.821 133.788 308.893L126.083 311.172Z" fill="#FFB1A5"/>
<path d="M131.424 233.32C131.424 233.32 146.396 254.449 146.484 254.01C146.571 253.572 151.737 224.29 151.737 224.29L133.525 216.399L131.424 233.32Z" fill="#F3978E"/>
<path d="M173.015 165.024C173.628 165.024 135.978 165.725 129.061 213.331L150.687 216.662L155.065 252.608H215.481L227.476 186.153C227.476 186.153 218.983 171.775 194.116 164.673L173.015 165.024Z" fill="#D03F23"/>
<path d="M154.627 170.81C154.627 170.81 159.968 177.912 181.77 177.912C203.397 177.912 208.913 170.46 208.913 170.46C208.913 170.46 196.13 163.358 181.332 160.991C181.42 160.991 168.198 163.358 154.627 170.81Z" fill="#FFB1A5"/>
<path d="M229 322V394H275.453L279 322H229Z" fill="#005683"/>
<path d="M331 322V394H283.618L280 322H331Z" fill="#005683"/>
<path d="M305.052 321.78H256.545V354.832H305.052V321.78Z" fill="#005683"/>
<path d="M263.287 354.744H296.822" stroke="#282828" stroke-width="1.3968" stroke-miterlimit="10" stroke-linecap="round" stroke-linejoin="round"/>
<path d="M360.39 238.843C363.28 271.018 360.215 294.514 361.091 353.78L333.072 354.919L328.869 244.015L360.39 238.843Z" fill="#FFB1A5"/>
<path d="M332.371 263.917C332.371 263.917 349.708 262.339 361.616 254.448L361.265 247.522L332.371 251.468V263.917Z" fill="#F3978E"/>
<path d="M304.527 164.673C304.527 164.673 359.689 178.525 369.671 248.574C369.671 248.574 342.703 260.322 315.647 255.237L321.689 231.829L304.527 164.673Z" fill="#6059C9"/>
<path d="M139.829 193.78L180.894 242.35L168.373 277.769C168.373 277.769 137.203 234.372 123.193 200.793L139.829 193.78Z" fill="#FFB1A5"/>
<path d="M141.143 195.533C141.143 195.533 126.696 203.687 123.106 200.706C116.714 195.533 111.373 176.684 111.373 176.684C111.373 176.684 138.341 166.514 138.078 166.865C137.816 167.303 141.143 195.533 141.143 195.533Z" fill="#FFB1A5"/>
<path d="M141.144 195.534C140.881 194.043 146.485 178.438 148.411 172.564C148.849 171.161 147.886 169.583 146.397 169.32C145.434 169.144 143.771 169.232 143.07 170.723L136.328 182.295L141.144 195.534Z" fill="#FFB1A5"/>
<path d="M140.705 178.613L136.064 155.468C135.802 153.89 134.226 152.837 132.737 153.188C131.424 153.451 130.548 154.591 130.723 155.994L132.737 173.177L140.705 178.613Z" fill="#FFB1A5"/>
<path d="M131.425 170.109L125.121 153.626C124.596 152.224 122.932 151.347 121.531 151.873C120.305 152.311 119.605 153.539 119.867 154.854L124.508 173.966L131.425 170.109Z" fill="#FFB1A5"/>
<path d="M124.682 174.93L116.715 158.711C116.014 157.221 114.175 156.519 112.687 157.133C111.286 157.747 110.673 159.325 111.286 160.815L117.678 176.158L124.682 174.93Z" fill="#FFB1A5"/>
<path d="M111.374 176.684L105.157 166.777C104.632 165.637 105.157 164.322 106.208 163.796C107.259 163.27 108.66 163.709 109.36 164.673L117.591 176.07L111.374 176.684Z" fill="#FFB1A5"/>
<path d="M139.392 176.859C139.392 176.859 130.024 175.895 129.061 188.432" stroke="#282828" stroke-width="1.5317" stroke-miterlimit="10" stroke-linecap="round" stroke-linejoin="round"/>
<path d="M159.969 261.199C159.969 261.199 167.674 287.939 183.084 284.432C198.494 280.838 222.485 247.961 222.485 247.961L217.144 191.764L173.978 244.98L159.969 261.199Z" fill="#FFB1A5"/>
<path d="M187.287 228.41C187.287 228.41 201.822 250.416 214.343 258.218L222.486 247.961L191.052 223.676L187.287 228.41Z" fill="#F3978E"/>
<path d="M251.116 163.446C251.116 163.446 208.3 173.09 185.535 222.887C185.535 222.887 199.282 243.665 221.434 252.958L236.231 234.81L251.116 163.446Z" fill="#6059C9"/>
<path d="M251.117 163.27C234.394 171.862 223.887 183.259 223.887 183.259L227.214 328.881H332.547L332.196 184.048C332.196 184.048 318.888 171.073 304.528 164.673C292.27 159.237 262.938 157.221 251.117 163.27Z" fill="#6059C9"/>
<path d="M300.937 234.196C292.881 234.196 286.314 227.621 286.314 219.555V204.914H315.647V219.555C315.559 227.621 308.992 234.196 300.937 234.196Z" stroke="#282828" stroke-width="1.3968" stroke-miterlimit="10" stroke-linecap="round" stroke-linejoin="round"/>
<path d="M332.371 255.851L333.684 208.158" stroke="#282828" stroke-width="1.3968" stroke-miterlimit="10" stroke-linecap="round" stroke-linejoin="round"/>
<path d="M225.462 247.873L223.186 206.58" stroke="#282828" stroke-width="1.3968" stroke-miterlimit="10" stroke-linecap="round" stroke-linejoin="round"/>
<path d="M252.343 110.141L247.966 88.399C247.703 86.6456 247.002 83.9278 247.878 81.2976C249.279 77.0894 254.357 68.8483 263.113 72.6182L265.039 81.21C265.039 81.21 255.933 83.0511 252.343 94.8867V110.141Z" fill="#282828"/>
<path d="M262.412 77.0894C262.237 79.9825 259.697 92.4318 250.854 96.9907C250.854 96.9907 243.149 80.3332 262.412 77.0894Z" fill="#282828"/>
<path d="M293.495 159.325V122.416H259.522V159.325L249.365 163.972C249.365 163.972 251.729 179.314 276.859 179.665C301.988 180.016 304.527 164.761 304.527 164.761L293.495 159.325Z" fill="#FFB1A5"/>
<path d="M263.111 72.6183C263.111 72.6183 269.328 56.1361 288.591 64.9033C300.236 70.2512 303.476 77.3526 304.877 82.3498C305.314 84.0156 305.49 86.6457 305.402 88.2238L300.761 110.142L282.549 79.8074L264.95 81.2101L263.111 72.6183Z" fill="#282828"/>
<path d="M300.762 110.142C300.762 110.142 303.038 106.46 307.767 108.301C312.495 110.054 310.393 121.627 303.301 123.029C303.301 123.029 300.762 123.555 298.748 121.802C298.748 121.802 300.499 113.298 300.762 110.142Z" fill="#F3978E"/>
<path d="M306.803 112.333C306.803 112.333 302.862 111.018 300.061 116.892" stroke="#282828" stroke-width="1.3968" stroke-miterlimit="10" stroke-linecap="round" stroke-linejoin="round"/>
<path d="M252.343 110.142C252.343 110.142 250.066 106.46 245.338 108.301C240.61 110.054 242.711 121.627 249.803 123.029C249.803 123.029 252.343 123.555 254.356 121.802C254.356 121.802 252.605 113.298 252.343 110.142Z" fill="#F3978E"/>
<path d="M246.213 112.333C246.213 112.333 250.153 111.018 252.955 116.892" stroke="#282828" stroke-width="1.3968" stroke-miterlimit="10" stroke-linecap="round" stroke-linejoin="round"/>
<path d="M301.2 99.1829C301.2 106.109 300.499 120.662 296.296 129.254C292.269 137.32 285.702 141.703 277.033 141.967C268.365 142.23 261.886 138.898 256.72 128.377C251.554 117.857 251.817 99.3583 251.817 99.3583C251.817 99.3583 251.817 74.635 276.245 74.635C301.988 74.5473 301.2 99.1829 301.2 99.1829Z" fill="#FFB1A5"/>
<path d="M259.785 133.55C259.785 133.55 262.675 148.016 275.195 149.681C289.643 151.61 293.495 133.9 293.495 133.9C293.495 133.9 287.103 141.966 276.947 141.966C265.739 141.966 259.785 133.55 259.785 133.55Z" fill="#282828"/>
<path d="M274.758 109.528V115.226C274.758 115.489 274.845 115.665 274.933 115.928C275.283 116.805 276.246 117.155 277.122 116.98L279.048 116.454" stroke="#282828" stroke-width="1.3968" stroke-miterlimit="10" stroke-linecap="round" stroke-linejoin="round"/>
<path d="M267.491 106.722C267.491 107.949 266.528 108.914 265.302 108.914C264.076 108.914 263.113 107.949 263.113 106.722C263.113 105.495 264.076 104.53 265.302 104.53C266.528 104.53 267.491 105.495 267.491 106.722Z" fill="#282828"/>
<path d="M288.417 106.722C288.417 107.949 287.454 108.914 286.228 108.914C285.002 108.914 284.039 107.949 284.039 106.722C284.039 105.495 285.002 104.53 286.228 104.53C287.366 104.53 288.417 105.495 288.417 106.722Z" fill="#282828"/>
<path d="M280.449 95.6756L295.422 99.5332C295.422 99.5332 294.721 95.325 288.592 93.8346C282.551 92.2565 280.449 95.6756 280.449 95.6756Z" fill="#282828"/>
<path d="M271.168 95.6756L256.195 99.5332C256.195 99.5332 256.896 95.325 263.025 93.8346C269.154 92.2565 271.168 95.6756 271.168 95.6756Z" fill="#282828"/>
<path d="M268.191 121.013C268.191 121.013 270.38 122.678 276.247 122.678C281.5 122.678 284.828 121.013 284.828 121.013" stroke="#282828" stroke-width="1.3968" stroke-miterlimit="10" stroke-linecap="round" stroke-linejoin="round"/>
<path d="M264.689 116.892C269.911 116.892 274.145 112.653 274.145 107.424C274.145 102.194 269.911 97.9551 264.689 97.9551C259.466 97.9551 255.232 102.194 255.232 107.424C255.232 112.653 259.466 116.892 264.689 116.892Z" stroke="white" stroke-width="1.9514" stroke-miterlimit="10"/>
<path d="M287.98 116.892C293.202 116.892 297.436 112.653 297.436 107.424C297.436 102.194 293.202 97.9551 287.98 97.9551C282.757 97.9551 278.523 102.194 278.523 107.424C278.523 112.653 282.757 116.892 287.98 116.892Z" stroke="white" stroke-width="1.9514" stroke-miterlimit="10"/>
<path d="M274.145 107.423C274.145 107.423 276.421 105.319 278.435 107.423" stroke="white" stroke-width="1.9514" stroke-miterlimit="10"/>
<path d="M255.232 107.424L252.08 107.336" stroke="white" stroke-width="1.9514" stroke-miterlimit="10"/>
<path d="M297.436 107.424L300.938 107.336" stroke="white" stroke-width="1.9514" stroke-miterlimit="10"/>
<path d="M259.785 77.7035C259.785 77.7035 264.338 90.5911 284.827 90.2404C298.749 89.9774 302.076 100.06 302.076 100.06C302.076 100.06 299.624 77.5281 299.011 77.7035C298.398 77.8788 277.822 72.1802 277.822 72.1802L259.785 77.7035Z" fill="#282828"/>
</g>
<defs>
<clipPath id="clip0_219_2532">
<rect width="563" height="416" fill="white"/>
</clipPath>
</defs>
</svg>
