<svg width="14" height="14" viewBox="0 0 14 14" fill="none" xmlns="http://www.w3.org/2000/svg">
<g clip-path="url(#clip0_2321_165)">
<path opacity="0.4" d="M9.30922 8.75H4.25337C4.12403 7.58692 4.12403 6.41308 4.25337 5.25H9.30922C9.37409 5.83107 9.4065 6.41532 9.40629 7C9.4065 7.58468 9.37409 8.16893 9.30922 8.75ZM4.38052 4.375H9.18207C9.17086 4.31184 9.15911 4.24867 9.14707 4.18605C8.98301 3.3425 8.75278 2.59 8.45993 1.94988C8.19059 1.3609 7.87504 0.889766 7.54829 0.587344C7.28387 0.342617 7.02575 0.21875 6.7813 0.21875C6.53684 0.21875 6.27872 0.342617 6.01567 0.587344C5.68755 0.889766 5.37337 1.3609 5.10403 1.94988C4.81255 2.59 4.58013 3.3425 4.41688 4.18605C4.40239 4.24867 4.39173 4.31184 4.38052 4.375ZM3.2813 7C3.28095 6.41547 3.31144 5.83132 3.37263 5.25H0.228371C-0.0759608 6.39682 -0.0759608 7.60318 0.228371 8.75H3.3729C3.31162 8.16868 3.28105 7.58454 3.2813 7ZM13.3334 5.25H10.1889C10.2504 5.8313 10.2813 6.41545 10.2813 7C10.2816 7.58453 10.2512 8.16868 10.19 8.75H13.3345C13.6388 7.60318 13.6388 6.39682 13.3345 5.25H13.3334ZM13.0348 4.375C12.6396 3.43619 12.0386 2.59818 11.276 1.92289C10.5135 1.2476 9.6089 0.752302 8.62918 0.473594C9.28899 1.37594 9.80196 2.74723 10.0716 4.375H13.0348ZM8.62918 13.5264C9.60897 13.2478 10.5136 12.7525 11.2762 12.0772C12.0388 11.4019 12.6399 10.5639 13.0351 9.625H10.0716C9.80196 11.2528 9.28899 12.6241 8.62918 13.5264ZM9.18207 9.625H4.38052C4.39173 9.68816 4.40349 9.75133 4.41552 9.81395C4.57958 10.6575 4.80981 11.41 5.10266 12.0501C5.372 12.6391 5.68727 13.1102 6.0143 13.4127C6.27872 13.6587 6.53684 13.7812 6.7813 13.7812C7.02575 13.7812 7.28387 13.6574 7.54829 13.4127C7.87641 13.1102 8.19059 12.6391 8.45993 12.0501C8.75278 11.41 8.98383 10.6575 9.14707 9.81395C9.1602 9.75133 9.17086 9.68816 9.18207 9.625ZM4.93341 0.473594C3.95362 0.752212 3.04898 1.24748 2.28636 1.92277C1.52374 2.59807 0.922647 3.43613 0.527511 4.375H3.49102C3.76063 2.74723 4.2736 1.37594 4.93341 0.473594ZM0.527511 9.625C0.922647 10.5639 1.52374 11.4019 2.28636 12.0772C3.04898 12.7525 3.95362 13.2478 4.93341 13.5264C4.2736 12.6241 3.76063 11.2528 3.49102 9.625H0.527511Z" fill="#5F5F75"/>
<path d="M10.2812 7.00001C10.2816 6.41547 10.2511 5.83133 10.1899 5.25001H13.3344C13.2551 4.95183 13.1554 4.65947 13.0358 4.37501H10.0715C9.80191 2.74723 9.28894 1.37594 8.62914 0.473596C8.02784 0.304009 7.40601 0.218251 6.78125 0.218752C7.0257 0.218752 7.28383 0.342619 7.54824 0.587346C7.87637 0.889768 8.19055 1.3609 8.45988 1.94989C8.75273 2.59 8.98379 3.3425 9.14703 4.18606C9.15906 4.24868 9.17082 4.31184 9.18203 4.37501H4.38048C4.39169 4.31184 4.40344 4.24868 4.41548 4.18606C4.57954 3.3425 4.80977 2.59 5.10262 1.94989C5.37196 1.3609 5.6875 0.889768 6.01563 0.587346C6.27867 0.342619 6.5368 0.218752 6.78125 0.218752C6.1565 0.218251 5.53466 0.304009 4.93336 0.473596C4.27356 1.37594 3.76059 2.74723 3.49098 4.37501H0.527475C0.407971 4.65947 0.308204 4.95183 0.228882 5.25001H3.37341C3.25145 6.41349 3.25145 7.58653 3.37341 8.75001H0.228882C0.308204 9.04819 0.407971 9.34055 0.527475 9.62501H3.49098C3.76059 11.2528 4.27356 12.6241 4.93336 13.5264C5.53466 13.696 6.1565 13.7818 6.78125 13.7813C6.5368 13.7813 6.27867 13.6574 6.01426 13.4127C5.68614 13.1102 5.37196 12.6391 5.10262 12.0501C4.80977 11.41 4.57872 10.6575 4.41548 9.81396C4.40344 9.75134 4.39169 9.68817 4.38048 9.62501H9.18203C9.17082 9.68817 9.15906 9.75134 9.14703 9.81396C8.98297 10.6575 8.75273 11.41 8.45988 12.0501C8.19055 12.6391 7.87527 13.1102 7.54824 13.4127C7.28383 13.6588 7.0257 13.7813 6.78125 13.7813C7.40601 13.7818 8.02784 13.696 8.62914 13.5264C9.28894 12.6241 9.80191 11.2528 10.0715 9.62501H13.035C13.1545 9.34055 13.2543 9.04819 13.3336 8.75001H10.1891C10.2507 8.16871 10.2815 7.58456 10.2812 7.00001ZM9.30945 8.75001H4.25333C4.12399 7.58693 4.12399 6.41309 4.25333 5.25001H9.30918C9.37405 5.83108 9.40645 6.41532 9.40625 7.00001C9.40645 7.58469 9.37405 8.16893 9.30918 8.75001H9.30945Z" fill="#5F5F75"/>
</g>
<defs>
<clipPath id="clip0_2321_165">
<rect width="13.5625" height="14" fill="white"/>
</clipPath>
</defs>
</svg>
