<svg width="48" height="48" viewBox="0 0 48 48" fill="none" xmlns="http://www.w3.org/2000/svg">
<g clip-path="url(#clip0_159_230)">
<path opacity="0.4" d="M27.3827 15.6562L27.3442 15.6402L27.3827 15.6562ZM21.137 15.4687C22.9954 14.8487 25.0049 14.8487 26.8633 15.4687L37.3633 4.96866C33.4501 2.22138 28.7852 0.747314 24.0039 0.747314C19.2227 0.747314 14.5577 2.22138 10.6445 4.96866L21.137 15.4687ZM27.5748 15.7424L27.6236 15.763L27.5748 15.7424ZM27.8083 15.8474L27.8514 15.8671L27.8083 15.8474ZM17.4611 30.1874L17.4433 30.1677L17.4611 30.1874ZM16.9445 29.5912L16.9642 29.6155L16.9445 29.5912ZM17.0992 29.7787C17.1105 29.7918 17.1208 29.8049 17.132 29.8171C17.1208 29.803 17.1105 29.7899 17.0992 29.7768V29.7787ZM17.2623 29.9662L17.2961 30.0037L17.2623 29.9662ZM29.9664 17.2621L30.0039 17.2959L29.9664 17.2621ZM16.6417 29.1833L16.6323 29.1693L16.6417 29.1833ZM28.517 16.2187L28.5489 16.2365L28.517 16.2187ZM29.5877 16.948L29.612 16.9677L29.5877 16.948ZM30.1839 17.4646L30.1642 17.4468L30.1839 17.4646ZM29.8127 17.1318L29.7733 17.099L29.8127 17.1318ZM28.7252 16.3415L28.7692 16.3687L28.7252 16.3415ZM29.1639 16.6312L29.1798 16.6424L29.1639 16.6312ZM28.9764 16.5046L28.9361 16.4774L28.9764 16.5046ZM28.0661 15.9721L28.0567 15.9674L28.0661 15.9721ZM16.4777 19.0574C16.487 19.0443 16.4955 19.0312 16.5039 19.018C16.5002 19.0312 16.487 19.0443 16.4777 19.0574ZM16.3417 19.2712L16.3689 19.228L16.3417 19.2712ZM16.2189 19.4821L16.2367 19.4521L16.2189 19.4821ZM16.9483 18.4124L16.968 18.388L16.9483 18.4124ZM17.1358 18.1846C17.1245 18.1968 17.1142 18.2099 17.103 18.223C17.1105 18.2099 17.1208 18.1968 17.132 18.1874L17.1358 18.1846ZM16.6361 18.8305L16.6455 18.8165L16.6361 18.8305ZM15.8673 20.1496C15.8608 20.1627 15.8552 20.1768 15.8486 20.1899C15.8514 20.1768 15.857 20.1627 15.8636 20.1496H15.8673ZM16.3727 28.7746L16.3455 28.7315L16.3727 28.7746ZM15.9723 28.0687V28.0734V28.0687ZM16.2367 28.5505L16.2189 28.5205L16.2367 28.5505ZM16.4814 28.9452C16.4908 28.9583 16.4992 28.9715 16.5077 28.9846C16.5002 28.9687 16.487 28.9555 16.4777 28.9424L16.4814 28.9452ZM15.8439 27.8099C15.8505 27.823 15.8561 27.8371 15.8627 27.8502C15.857 27.8371 15.8514 27.823 15.8439 27.8099ZM15.6564 20.6193C15.6564 20.6315 15.647 20.6427 15.6414 20.6549C15.648 20.6427 15.6564 20.6315 15.6564 20.6193ZM15.7586 20.3774C15.752 20.3934 15.7445 20.4093 15.738 20.4243C15.7502 20.4093 15.7502 20.3934 15.7595 20.3774H15.7586ZM15.738 27.5755C15.7445 27.5905 15.752 27.6065 15.7586 27.6224C15.7502 27.6065 15.7502 27.5905 15.7389 27.5755H15.738ZM15.6442 27.3449C15.6498 27.3571 15.6545 27.3683 15.6592 27.3805C15.6564 27.3683 15.648 27.3571 15.6423 27.3449H15.6442ZM31.7692 19.4521L31.787 19.4821L31.7692 19.4521ZM30.7042 29.9999L30.738 29.9624L30.7042 29.9999ZM30.557 30.1602L30.5392 30.1799L30.557 30.1602ZM30.5392 17.8124L30.557 17.8321L30.5392 17.8124ZM30.8683 29.8124C30.8795 29.8002 30.8898 29.7871 30.9011 29.774C30.8898 29.7899 30.8795 29.803 30.8683 29.8124ZM31.0558 18.4096L31.0361 18.3852L31.0558 18.4096ZM31.0558 29.5846L31.0361 29.609L31.0558 29.5846ZM30.9011 18.2202C30.8898 18.2071 30.8795 18.194 30.8683 18.1818C30.8795 18.1968 30.8898 18.2099 30.9011 18.223V18.2202ZM30.738 18.0327L30.7042 17.9952L30.738 18.0327ZM31.3586 18.8155L31.368 18.8296L31.3586 18.8155ZM31.368 29.1684L31.3586 29.1824L31.368 29.1684ZM37.3586 4.96866C37.4836 5.05679 37.6086 5.14585 37.7336 5.23585C37.6086 5.14647 37.4836 5.05741 37.3586 4.96866ZM32.2408 27.6224C32.2473 27.6065 32.2548 27.5905 32.2614 27.5755C32.2548 27.5905 32.2502 27.6065 32.2408 27.6224ZM32.343 27.3805C32.3477 27.3683 32.3523 27.3571 32.358 27.3449C32.3523 27.3571 32.3439 27.3683 32.3439 27.3805H32.343ZM32.0289 28.0705V28.0658V28.0705ZM31.5227 28.9424L31.4964 28.9818L31.5227 28.9424ZM31.6586 28.7287L31.6314 28.7718L31.6586 28.7287ZM31.7852 28.5177L31.7673 28.5477L31.7852 28.5177ZM32.1367 27.8502C32.1433 27.8371 32.1489 27.823 32.1555 27.8099C32.1489 27.823 32.1433 27.8371 32.1367 27.8502ZM42.0939 9.3946C42.0058 9.28522 41.9167 9.1771 41.8267 9.07022C41.9136 9.1771 42.0027 9.28522 42.0939 9.3946ZM41.7648 8.99991C41.6711 8.88929 41.5773 8.7796 41.4836 8.67085C41.5773 8.78241 41.672 8.8921 41.7648 8.99991ZM42.4089 9.79679C42.3239 9.68804 42.2377 9.57866 42.1502 9.46866C42.2377 9.57866 42.3239 9.68897 42.4089 9.7996V9.79679ZM42.7239 10.213C42.6386 10.0977 42.5523 9.98429 42.4661 9.87085C42.5523 9.9871 42.6386 10.1005 42.7239 10.2187V10.213ZM31.5227 19.0574L31.4964 19.018L31.5227 19.0574ZM37.7814 5.27616C37.897 5.36116 38.0114 5.44741 38.1245 5.53491C38.0133 5.44804 37.8989 5.36179 37.7814 5.27616ZM38.928 6.17804C38.8205 6.08804 38.712 5.99897 38.6027 5.91085C38.7133 5.99897 38.8227 6.08804 38.9308 6.17804H38.928ZM38.5314 5.84991C38.4227 5.76241 38.313 5.67585 38.2023 5.59022C38.3117 5.67585 38.4214 5.76241 38.5314 5.84991ZM39.3283 6.51835C39.2195 6.42272 39.1098 6.32897 38.9992 6.2371C39.1086 6.32897 39.2177 6.42272 39.3264 6.51835H39.3283ZM32.2614 20.4243C32.2548 20.4093 32.2473 20.3934 32.2408 20.3774C32.2502 20.3934 32.2548 20.4093 32.2614 20.4243ZM17.2961 17.9999L17.2623 18.0374L17.2961 17.9999ZM32.1564 20.1899C32.1498 20.1768 32.1442 20.1627 32.1377 20.1496C32.1433 20.1627 32.1489 20.1768 32.1564 20.1899ZM42.7652 10.2712C42.8589 10.394 42.9433 10.5168 43.0314 10.6405C42.9423 10.5168 42.8542 10.394 42.7642 10.2712H42.7652ZM31.6314 19.228L31.6586 19.2712L31.6314 19.228ZM39.3686 6.55491C40.1034 7.20283 40.7966 7.89639 41.4442 8.63147C40.7964 7.89662 40.1032 7.20307 39.3686 6.55491ZM32.358 20.6549C32.3526 20.6432 32.3476 20.6313 32.343 20.6193C32.3439 20.6315 32.3523 20.6427 32.358 20.6549ZM43.0314 37.3583C45.7787 33.4452 47.2528 28.7802 47.2528 23.999C47.2528 19.2177 45.7787 14.5527 43.0314 10.6396L32.5314 21.1368C33.1514 22.9952 33.1514 25.0046 32.5314 26.863L43.0314 37.3583ZM20.6561 32.3577L20.6177 32.3418L20.6561 32.3577ZM20.4255 32.264L20.3767 32.2433L20.4255 32.264ZM19.9286 32.0305L19.938 32.0352L19.9286 32.0305ZM30.1877 30.539L30.168 30.5568L30.1877 30.539ZM28.982 31.4999L28.9417 31.5271L28.982 31.4999ZM29.1695 31.3733L29.1855 31.3621L29.1695 31.3733ZM29.5895 31.0602L29.6139 31.0405L29.5895 31.0602ZM29.9645 30.7424L30.002 30.7087L29.9645 30.7424ZM29.8145 30.8727L29.7752 30.9055L29.8145 30.8727ZM20.192 32.1562L20.1489 32.1365L20.192 32.1562ZM18.4108 31.0555L18.3864 31.0358L18.4108 31.0555ZM18.0358 30.7377L17.9983 30.704L18.0358 30.7377ZM17.4452 17.8358L17.463 17.8162L17.4452 17.8358ZM17.8202 30.539L17.8398 30.5568L17.8202 30.539ZM19.2752 31.6583L19.2311 31.6312L19.2752 31.6583ZM19.487 31.7849L19.4552 31.7671L19.487 31.7849ZM26.867 32.5349C25.0086 33.1549 22.9992 33.1549 21.1408 32.5349L10.6417 43.0312C14.5549 45.7785 19.2199 47.2525 24.0011 47.2525C28.7823 47.2525 33.4473 45.7785 37.3605 43.0312L26.867 32.5349ZM19.0183 31.4999L19.0586 31.5271L19.0183 31.4999ZM18.8308 31.3733L18.8148 31.3621L18.8308 31.3733ZM39.0002 41.7646C39.1108 41.6715 39.2205 41.5777 39.3292 41.4833C39.2186 41.5777 39.1089 41.6715 39.0002 41.7646ZM43.0314 37.3583C42.9442 37.483 42.8552 37.6059 42.7652 37.7287C42.8542 37.6059 42.9433 37.483 43.0314 37.3583ZM38.6055 42.0937C38.7142 42.0055 38.8227 41.9165 38.9308 41.8265C38.8233 41.9133 38.7148 42.0024 38.6055 42.0937ZM38.2005 42.4143C38.3111 42.328 38.4208 42.2415 38.5295 42.1546C38.4208 42.239 38.3111 42.324 38.2005 42.4096V42.4143ZM42.7239 37.7812C42.6383 37.8968 42.552 38.0112 42.4652 38.1243C42.5527 38.013 42.6389 37.8987 42.7239 37.7812ZM41.7648 38.9999C41.6711 39.1105 41.5773 39.2202 41.4836 39.329C41.5773 39.2174 41.672 39.1077 41.7648 38.9999ZM42.0892 38.608C42.0011 38.7168 41.912 38.8252 41.822 38.9333C41.912 38.824 42.0027 38.7146 42.0939 38.6052L42.0892 38.608ZM42.1502 38.5321C42.237 38.4234 42.3236 38.3137 42.4098 38.203C42.3242 38.3118 42.2377 38.4212 42.1502 38.5312V38.5321ZM28.0717 32.0277C28.0689 32.0298 28.0657 32.0314 28.0623 32.0324C28.0657 32.0314 28.0689 32.0298 28.0717 32.0277ZM27.5748 32.2612L27.6236 32.2405L27.5748 32.2612ZM28.7289 31.6583L28.773 31.6312L28.7289 31.6583ZM27.8083 32.1562L27.8514 32.1365L27.8083 32.1562ZM28.517 31.7812L28.5489 31.7633L28.517 31.7812ZM41.4452 39.3646C40.7972 40.0997 40.1037 40.7933 39.3686 41.4412C40.1036 40.7945 40.7971 40.1022 41.4452 39.3683V39.3646ZM37.7298 42.7593C37.6048 42.8493 37.4798 42.9384 37.3548 43.0265C37.4823 42.9408 37.6073 42.853 37.7298 42.763V42.7593ZM27.3827 32.3437L27.3442 32.3596L27.3827 32.3437ZM37.7814 42.7237C37.897 42.638 38.0114 42.5518 38.1245 42.4649C38.0133 42.5524 37.8989 42.6387 37.7814 42.7237ZM18.1877 30.868L18.227 30.9008L18.1877 30.868ZM6.55609 8.63147C7.20368 7.89639 7.89693 7.20283 8.63172 6.55491C7.89715 7.20307 7.20392 7.89662 6.55609 8.63147ZM9.39484 5.91272C9.28609 6.00085 9.17766 6.08991 9.06953 6.17991C9.17766 6.08866 9.28609 5.99897 9.39484 5.91085V5.91272ZM17.8323 17.444L17.8127 17.4618L17.8323 17.444ZM18.2195 17.0999L18.1802 17.1327L18.2195 17.0999ZM10.2705 5.23679C10.3955 5.14679 10.5205 5.05772 10.6455 4.9696C10.5186 5.05772 10.3936 5.14679 10.2705 5.23679ZM18.3883 16.9687L18.4127 16.949L18.3883 16.9687ZM9.79984 5.59022C9.68922 5.67585 9.57891 5.76241 9.46891 5.84991C9.57891 5.76241 9.68922 5.67585 9.79984 5.59022ZM9.87297 5.53491C9.98609 5.44741 10.1005 5.36116 10.2161 5.27616C10.1011 5.36179 9.98672 5.44679 9.87297 5.53116V5.53491ZM18.0339 17.2621L17.9964 17.2959L18.0339 17.2621ZM20.1489 15.8633L20.192 15.8437L20.1489 15.8633ZM19.938 15.9674L19.9286 15.9721L19.938 15.9674ZM20.3767 15.7593L20.4255 15.7387L20.3767 15.7593ZM20.6177 15.658L20.6561 15.6421L20.6177 15.658ZM19.0183 16.5018L19.0586 16.4746L19.0183 16.5018ZM19.487 16.2121L19.4552 16.2299L19.487 16.2121ZM18.8205 16.6396L18.8364 16.6283L18.8205 16.6396ZM19.2311 16.3659L19.2752 16.3387L19.2311 16.3659ZM9.06953 41.8218C9.17766 41.9118 9.28609 42.0009 9.39484 42.089C9.28609 42.0009 9.17766 41.9118 9.06953 41.8218ZM5.91109 38.6052C5.99922 38.714 6.08828 38.8224 6.17828 38.9305C6.08828 38.823 5.99922 38.7146 5.91109 38.6052ZM6.23547 38.9999C6.32922 39.1105 6.42297 39.2202 6.51672 39.329C6.42297 39.2174 6.32828 39.1077 6.23547 38.9999ZM5.27641 37.7812C5.36141 37.8968 5.44766 38.0112 5.53516 38.1243C5.44828 38.013 5.36203 37.8987 5.27641 37.7812ZM5.59047 38.1974C5.67609 38.3099 5.76266 38.4212 5.85016 38.5312C5.76266 38.4212 5.67609 38.3108 5.59047 38.2002V38.1974ZM8.67391 41.4787C8.78266 41.5743 8.89234 41.668 9.00297 41.7599C8.89234 41.6699 8.78266 41.5771 8.67391 41.4815V41.4787ZM9.87297 42.4687C9.98609 42.5562 10.1005 42.6424 10.2161 42.7274C10.1011 42.6399 9.98672 42.5537 9.87297 42.4687ZM10.6417 43.0312C10.5167 42.943 10.3917 42.854 10.2667 42.764C10.3923 42.8533 10.5173 42.9424 10.6417 43.0312ZM9.46891 42.1499C9.57766 42.2368 9.68734 42.3233 9.79797 42.4096C9.68859 42.324 9.57891 42.2374 9.46891 42.1499ZM5.23609 37.7287C5.14234 37.6059 5.05797 37.483 4.96984 37.3583C5.06266 37.483 5.14609 37.6059 5.23609 37.7287ZM6.17828 9.07022C6.08828 9.1771 5.99922 9.28522 5.91109 9.3946C5.99922 9.28522 6.08828 9.1771 6.17828 9.07022ZM5.27734 10.2187C5.36172 10.1033 5.44797 9.98897 5.53422 9.87647C5.44797 9.98616 5.36172 10.1005 5.27734 10.2187ZM5.85016 9.46866C5.76266 9.57741 5.67641 9.6871 5.59141 9.79772C5.67641 9.68835 5.76266 9.57866 5.85016 9.46866ZM6.51766 8.67179C6.42391 8.78054 6.33016 8.89023 6.23641 9.00085C6.32828 8.8921 6.42297 8.78241 6.51766 8.67366V8.67179ZM8.67391 6.51554C8.78266 6.41991 8.89234 6.32616 9.00297 6.23429C8.89234 6.32804 8.78266 6.42272 8.67391 6.51835V6.51554ZM8.63172 41.4421C7.89662 40.7942 7.20306 40.1006 6.55516 39.3655C7.20297 40.1016 7.89654 40.7961 8.63172 41.4449V41.4421ZM15.4689 26.863C14.8489 25.0046 14.8489 22.9952 15.4689 21.1368L4.96891 10.6415C2.22162 14.5546 0.747559 19.2196 0.747559 24.0009C0.747559 28.7821 2.22162 33.4471 4.96891 37.3602L15.4689 26.863ZM5.23984 10.2693C5.14984 10.3943 5.06109 10.5171 4.97359 10.6377C5.05859 10.5159 5.14609 10.394 5.23609 10.2721L5.23984 10.2693Z" fill="#6059C9"/>
<path d="M32.5312 21.1369L43.0312 10.6416C41.4813 8.43792 39.5621 6.51873 37.3584 4.96875L26.8631 15.4688C28.1807 15.913 29.3778 16.6557 30.3611 17.6389C31.3443 18.6222 32.087 19.8193 32.5312 21.1369ZM15.4688 26.8631L4.96875 37.3631C6.51854 39.5664 8.43739 41.4852 10.6406 43.035L21.1369 32.5312C19.8193 32.087 18.6222 31.3443 17.6389 30.3611C16.6557 29.3778 15.913 28.1807 15.4688 26.8631ZM4.96875 10.6444L15.4688 21.1444C15.9129 19.8257 16.656 18.6276 17.6399 17.6436C18.6238 16.6597 19.8219 15.9166 21.1406 15.4725L10.6416 4.96875C8.43792 6.51873 6.51873 8.43792 4.96875 10.6416V10.6444ZM26.8631 32.5312L37.3631 43.0312C39.5664 41.4815 41.4852 39.5626 43.035 37.3594L32.5312 26.8631C32.087 28.1807 31.3443 29.3778 30.3611 30.3611C29.3778 31.3443 28.1807 32.087 26.8631 32.5312Z" fill="#6059C9"/>
</g>
<defs>
<clipPath id="clip0_159_230">
<rect width="48" height="48" fill="white"/>
</clipPath>
</defs>
</svg>
