<svg width="48" height="48" viewBox="0 0 48 48" fill="none" xmlns="http://www.w3.org/2000/svg">
<g clip-path="url(#clip0_115_99)">
<path opacity="0.4" d="M13.5 0C12.61 0 11.74 0.26392 10.9999 0.758387C10.2599 1.25285 9.68314 1.95566 9.34254 2.77792C9.00195 3.60019 8.91283 4.50499 9.08647 5.37791C9.2601 6.25082 9.68868 7.05264 10.318 7.68198C10.9474 8.31132 11.7492 8.7399 12.6221 8.91353C13.495 9.08717 14.3998 8.99805 15.2221 8.65746C16.0443 8.31686 16.7471 7.74009 17.2416 7.00007C17.7361 6.26005 18 5.39002 18 4.5C17.998 3.30713 17.5233 2.16369 16.6798 1.32021C15.8363 0.476726 14.6929 0.00198315 13.5 0V0ZM47.0156 6.24375L30.1012 0.09375C29.916 0.026571 29.7193 -0.00343704 29.5224 0.00544101C29.3255 0.0143191 29.1323 0.0619091 28.9538 0.145491C28.7753 0.229073 28.6151 0.347009 28.4822 0.492558C28.3493 0.638107 28.2464 0.808415 28.1794 0.99375L24.0731 12.2719C24.0059 12.4572 23.9759 12.6539 23.9848 12.8507C23.9937 13.0476 24.0413 13.2408 24.1249 13.4193C24.2084 13.5978 24.3264 13.7581 24.4719 13.8909C24.6175 14.0238 24.7878 14.1267 24.9731 14.1937L41.895 20.3438C42.0803 20.4109 42.277 20.4409 42.4739 20.4321C42.6707 20.4232 42.8639 20.3756 43.0424 20.292C43.2209 20.2084 43.3812 20.0905 43.514 19.9449C43.6469 19.7994 43.7498 19.6291 43.8169 19.4437L47.9062 8.16562C47.9745 7.98088 48.0055 7.78446 47.9976 7.58767C47.9896 7.39088 47.9428 7.19761 47.8599 7.01898C47.7769 6.84035 47.6595 6.6799 47.5142 6.54685C47.369 6.4138 47.1989 6.31079 47.0137 6.24375H47.0156Z" fill="#FFFCF7"/>
<path d="M30.0937 19.875L25.6125 18.375L20.9906 13.7531C20.4361 13.1934 19.7761 12.7494 19.0486 12.4469C18.3212 12.1443 17.541 11.9892 16.7531 11.9906H10.8562C9.7416 11.9875 8.6484 12.2968 7.70059 12.8834C6.75277 13.47 5.98826 14.3104 5.49375 15.3094L0.316871 25.6594C0.122375 26.0132 0.00131738 26.4027 -0.0390489 26.8045C-0.0794151 27.2062 -0.0382589 27.612 0.0819537 27.9975C0.202166 28.383 0.398961 28.7402 0.660546 29.0478C0.92213 29.3554 1.24312 29.6071 1.60428 29.7877C1.96544 29.9682 2.35934 30.0741 2.76238 30.0988C3.16541 30.1235 3.56929 30.0666 3.9498 29.9314C4.33031 29.7963 4.67963 29.5858 4.97683 29.3124C5.27402 29.0391 5.51298 28.7085 5.67937 28.3406L7.5 24.7125V29.85L6.0075 44.7C5.92893 45.4905 6.16709 46.2798 6.66973 46.8949C7.17238 47.5101 7.89847 47.9007 8.68875 47.9812C8.79187 47.9906 8.895 48 8.98875 48C9.73152 47.998 10.4472 47.721 10.9978 47.2224C11.5483 46.7238 11.8947 46.0389 11.97 45.3L13.2075 33H14.6419L18 39.7031V45C18 45.7956 18.3161 46.5587 18.8787 47.1213C19.4413 47.6839 20.2043 48 21 48C21.7956 48 22.5587 47.6839 23.1213 47.1213C23.6839 46.5587 24 45.7956 24 45V39.7031C24.0004 38.7729 23.7854 37.8551 23.3719 37.0219L19.5094 29.2875V20.7375L21.3844 22.6125C22.0443 23.2696 22.8461 23.7667 23.7281 24.0656L28.05 25.5094L27 28.3969C26.9328 28.5821 26.9028 28.7788 26.9117 28.9757C26.9206 29.1726 26.9682 29.3658 27.0517 29.5443C27.1353 29.7228 27.2533 29.883 27.3988 30.0159C27.5444 30.1488 27.7147 30.2517 27.9 30.3187L29.3062 30.8344C29.4915 30.9015 29.6882 30.9315 29.8851 30.9227C30.082 30.9138 30.2752 30.8662 30.4537 30.7826C30.6322 30.699 30.7924 30.5811 30.9253 30.4355C31.0582 30.29 31.1611 30.1197 31.2281 29.9344L35.5584 18.0403L31.3125 16.5L30.0937 19.875ZM40.2825 0.609363L38.8762 0.093738C38.691 0.026559 38.4943 -0.00344903 38.2974 0.00542901C38.1005 0.0143071 37.9073 0.0618971 37.7288 0.145479C37.5503 0.229061 37.3901 0.346997 37.2572 0.492546C37.1243 0.638095 37.0214 0.808403 36.9544 0.993738L36.4397 2.39999L40.6678 3.93749L41.1825 2.53124C41.2497 2.34596 41.2797 2.14925 41.2708 1.95237C41.2619 1.75549 41.2143 1.56228 41.1308 1.3838C41.0472 1.20532 40.9292 1.04505 40.7837 0.912172C40.6381 0.77929 40.4678 0.676394 40.2825 0.609363Z" fill="#FFFCF7"/>
</g>
<defs>
<clipPath id="clip0_115_99">
<rect width="48" height="48" fill="white"/>
</clipPath>
</defs>
</svg>
