<svg width="42" height="48" viewBox="0 0 42 48" fill="none" xmlns="http://www.w3.org/2000/svg">
<g clip-path="url(#clip0_151_1691)">
<path opacity="0.4" d="M39 18V19.5C38.9963 22.2836 37.8888 24.9522 35.9205 26.9205C33.9522 28.8888 31.2836 29.9963 28.5 30H19.5C18.7044 30 17.9413 29.6839 17.3787 29.1213C16.8161 28.5587 16.5 27.7956 16.5 27C16.5 26.2044 16.8161 25.4413 17.3787 24.8787C17.9413 24.3161 18.7044 24 19.5 24H22.5C23.2956 24 24.0587 24.3161 24.6213 24.8787C25.1839 25.4413 25.5 26.2044 25.5 27H28.5C30.4884 26.9978 32.3948 26.2069 33.8008 24.8008C35.2069 23.3948 35.9978 21.4884 36 19.5V18C36 9.72937 29.2706 3 21 3C12.7294 3 6 9.72937 6 18V19.5C6 19.8978 5.84196 20.2794 5.56066 20.5607C5.27936 20.842 4.89782 21 4.5 21C4.10218 21 3.72064 20.842 3.43934 20.5607C3.15804 20.2794 3 19.8978 3 19.5V18C3 8.07469 11.0747 0 21 0C30.9253 0 39 8.07469 39 18Z" fill="#6059C9"/>
<path d="M30 33H27.8344C25.6915 33.9881 23.3598 34.4998 21 34.4998C18.6402 34.4998 16.3085 33.9881 14.1656 33H12C8.8174 33 5.76516 34.2643 3.51472 36.5147C1.26428 38.7652 0 41.8174 0 45C0 45.7957 0.316071 46.5587 0.87868 47.1213C1.44129 47.6839 2.20435 48 3 48H39C39.7957 48 40.5587 47.6839 41.1213 47.1213C41.6839 46.5587 42 45.7957 42 45C42 41.8174 40.7357 38.7652 38.4853 36.5147C36.2348 34.2643 33.1826 33 30 33ZM13.5328 27.3253C13.5272 27.2156 13.5 27.1116 13.5 27C13.5017 25.4092 14.1344 23.8841 15.2593 22.7593C16.3841 21.6344 17.9092 21.0017 19.5 21H22.5C23.553 21.0003 24.5873 21.2776 25.4992 21.8042C26.411 22.3308 27.1682 23.0881 27.6947 24H28.5C29.6931 23.9988 30.837 23.5243 31.6806 22.6806C32.5243 21.837 32.9988 20.6931 33 19.5V18C33 14.8174 31.7357 11.7652 29.4853 9.51472C27.2348 7.26428 24.1826 6 21 6C17.8174 6 14.7652 7.26428 12.5147 9.51472C10.2643 11.7652 9 14.8174 9 18C9 21.7894 10.7906 25.125 13.5328 27.3253Z" fill="#6059C9"/>
</g>
<defs>
<clipPath id="clip0_151_1691">
<rect width="42" height="48" fill="white"/>
</clipPath>
</defs>
</svg>
